<svg width="24" height="24" viewBox="0 0 24 24" fill="none" xmlns="http://www.w3.org/2000/svg">
<g clip-path="url(#clip0_58_11989)">
<path d="M12 0C5.37258 0 0 5.37258 0 12C0 18.6274 5.37258 24 12 24C18.6274 24 24 18.6274 24 12C24 5.37258 18.6274 0 12 0ZM12 22.9091C5.97506 22.9091 1.09092 18.0249 1.09092 12C1.09092 5.97506 5.97506 1.09092 12 1.09092C18.0249 1.09092 22.9091 5.97506 22.9091 12C22.9091 18.0249 18.0249 22.9091 12 22.9091Z" fill="white"/>
<g clip-path="url(#clip1_58_11989)">
<path d="M12.2893 13.2994C12.1948 13.3601 12.0885 13.3844 11.9941 13.3844C11.8996 13.3844 11.7934 13.3601 11.6989 13.2994L7 10.3485V14.2709C7 15.1088 7.66116 15.7888 8.4758 15.7888H15.5242C16.3388 15.7888 17 15.1088 17 14.2709V10.3485L12.2893 13.2994Z" fill="white"/>
<path d="M15.5241 8.21118H8.47572C7.77914 8.21118 7.18883 8.72122 7.04715 9.40126L12.0058 12.5101L16.9527 9.40126C16.811 8.72122 16.2207 8.21118 15.5241 8.21118Z" fill="white"/>
</g>
</g>
<defs>
<clipPath id="clip0_58_11989">
<rect width="24" height="24" fill="white"/>
</clipPath>
<clipPath id="clip1_58_11989">
<rect width="10" height="8" fill="white" transform="translate(7 8)"/>
</clipPath>
</defs>
</svg>
