<svg width="65" height="64" viewBox="0 0 65 64" fill="none" xmlns="http://www.w3.org/2000/svg">
<path d="M32.5001 62.2223C49.1913 62.2223 62.7223 48.6913 62.7223 32.0001C62.7223 15.3088 49.1913 1.77783 32.5001 1.77783C15.8088 1.77783 2.27783 15.3088 2.27783 32.0001C2.27783 48.6913 15.8088 62.2223 32.5001 62.2223Z" fill="#E85C4A"/>
<path d="M32.4999 58.1011C46.9151 58.1011 58.6009 46.4152 58.6009 32.0001C58.6009 17.5849 46.9151 5.89905 32.4999 5.89905C18.0847 5.89905 6.39893 17.5849 6.39893 32.0001C6.39893 46.4152 18.0847 58.1011 32.4999 58.1011Z" fill="#191C21"/>
<path d="M34.6843 40.8057C34.6843 42.0283 33.7365 42.9762 32.5139 42.9762C31.2912 42.9762 30.3159 42.0283 30.3159 40.8057C30.3159 39.5831 31.305 38.6352 32.5139 38.6352C33.7228 38.6352 34.6843 39.5831 34.6843 40.8057ZM30.8104 36.7257L30.5083 21.0101H34.5057L34.2035 36.7257H30.8104Z" fill="white"/>
</svg>
