<svg width="103" height="28" viewBox="0 0 103 28" fill="none" xmlns="http://www.w3.org/2000/svg">
<g clip-path="url(#clip0_2_118)">
<path d="M19.5451 11.0982C18.0192 11.1042 17.0478 10.2184 16.8373 8.63328C16.8022 8.36723 16.7731 8.09917 16.7089 7.83918C16.1746 5.67859 14.5395 5.31883 12.8923 5.76425C12.2066 5.94967 11.7545 6.46765 11.5099 7.1257C11.3425 7.57817 11.2252 8.05584 11.1399 8.5325C10.8442 10.1983 9.95897 11.0015 8.28877 11.197C7.75844 11.2594 7.19402 11.4177 6.74188 11.6918C5.77144 12.2793 5.40252 13.5087 5.70127 14.7633C5.95892 15.8426 6.84715 16.5884 8.03413 16.7405C8.44617 16.7929 8.86823 16.8383 9.26122 16.9642C10.359 17.3159 10.9445 18.1161 11.1089 19.2448C11.2332 20.0973 11.4196 20.9136 12.0031 21.6029C12.8753 22.6328 15.6072 22.7739 16.3952 20.9055C16.6017 20.4168 16.75 19.8897 16.8343 19.3657C17.0819 17.8238 18.2839 16.7022 19.6744 16.7718C21.104 16.8433 22.2679 18.0778 22.3501 19.6096C22.4143 20.8078 21.514 21.9818 20.307 22.2549C19.9331 22.3395 19.5491 22.3788 19.1731 22.4584C17.8388 22.7436 16.9766 23.6828 16.8092 25.0503C16.7079 25.8787 16.5576 26.6728 15.9129 27.2845C14.4422 28.6802 11.8106 27.9234 11.3344 25.9573C11.2713 25.6973 11.2452 25.4282 11.2061 25.1622C10.9665 23.5176 10.0151 22.5753 8.39003 22.3728C6.53837 22.142 5.84663 21.4537 5.60402 19.6025C5.37244 17.8349 4.33283 16.8736 2.48819 16.7194C1.30421 16.6206 0.468109 15.9898 0.165347 14.9659C-0.223631 13.6518 0.0721128 12.4204 1.05057 11.7532C1.47263 11.465 2.02101 11.2806 2.5313 11.2201C4.40601 10.9974 5.29926 10.1509 5.60503 8.28661C5.69525 7.73639 5.87771 7.16702 6.15641 6.68935C6.6276 5.88316 7.4657 5.65138 8.34191 5.55967C10.0442 5.38231 10.9414 4.50659 11.1971 2.7884C11.2492 2.44173 11.3074 2.09003 11.4156 1.75748C11.7806 0.633852 12.5946 0.0372707 13.7675 0.00199992C15.1971 -0.0403251 16.0814 0.46959 16.5195 1.63454C16.6598 2.00639 16.747 2.40848 16.7962 2.80452C16.9927 4.41488 17.8959 5.34402 19.504 5.55564C19.7516 5.58789 20.0012 5.62115 20.2448 5.67758C21.2113 5.89928 21.9341 6.43036 22.1947 7.42197C22.4825 8.51839 22.3772 9.56241 21.5231 10.4089C20.9777 10.9491 20.2899 11.1163 19.5441 11.0992H19.5451V11.0982Z" fill="white"/>
<path d="M13.94 16.7375C12.3761 16.7315 11.2292 15.5403 11.2322 13.9269C11.2352 12.4042 12.4553 11.1849 13.9811 11.1819C15.4538 11.1788 16.7902 12.505 16.7882 13.9672C16.7861 15.4889 15.4959 16.7446 13.94 16.7375Z" fill="white"/>
<path d="M30.4826 18.4255C29.5422 18.4255 28.7533 18.2421 28.1137 17.8743C27.474 17.5064 26.9918 16.9935 26.665 16.3354C26.3382 15.6774 26.1758 14.9115 26.1758 14.0378C26.1758 13.1641 26.3392 12.3851 26.665 11.7129C26.9918 11.0408 27.463 10.5168 28.0806 10.1409C28.6981 9.76498 29.445 9.57755 30.3222 9.57755C30.9157 9.57755 31.4651 9.67126 31.9683 9.8587C32.4716 10.0461 32.9047 10.3323 33.2666 10.7153C33.6285 11.0992 33.8922 11.587 34.0576 12.1805L32.1989 12.631C32.0766 12.113 31.8531 11.7321 31.5262 11.4892C31.1994 11.2464 30.8044 11.1244 30.3403 11.1244C29.8761 11.1244 29.447 11.2443 29.1132 11.4832C28.7793 11.722 28.5247 12.0616 28.3523 12.5C28.1788 12.9384 28.0926 13.4624 28.0926 14.071C28.0926 14.6011 28.1668 15.0788 28.3172 15.503C28.4665 15.9283 28.7152 16.2629 29.063 16.5088C29.4109 16.7536 29.8781 16.8766 30.4646 16.8766C30.7753 16.8766 31.0992 16.8302 31.438 16.7375C31.7759 16.6448 32.0696 16.4634 32.3172 16.1954V14.6354L32.9899 15.0919H29.8691V13.6095H34.0516V16.9663C33.7017 17.3815 33.3107 17.6939 32.8806 17.9035C32.4496 18.1131 32.0245 18.2522 31.6034 18.3217C31.1824 18.3912 30.8084 18.4255 30.4826 18.4255Z" fill="white"/>
<path d="M35.5323 18.2703V9.73071H39.5384C41.5604 9.73071 42.571 10.555 42.571 12.2037C42.571 13.8524 41.4873 14.6767 39.3208 14.6767H37.3559V18.2703H35.5323ZM37.3549 13.2528H39.4261C39.8511 13.2528 40.178 13.1631 40.4086 12.9827C40.6381 12.8023 40.7534 12.5453 40.7534 12.2087C40.7534 11.8722 40.6361 11.6081 40.4025 11.4257C40.1689 11.2443 39.8331 11.1526 39.397 11.1526H37.3559V13.2517H37.3549V13.2528ZM40.6592 18.2713L38.217 14.1789H40.2351L42.7013 18.2713H40.6592Z" fill="white"/>
<path d="M47.7149 18.4255C46.8457 18.4255 46.0949 18.2471 45.4613 17.8884C44.8277 17.5306 44.3404 17.0207 43.9986 16.3586C43.6567 15.6965 43.4853 14.9105 43.4853 14.0015C43.4853 13.0925 43.6567 12.3015 43.9986 11.6414C44.3404 10.9813 44.8287 10.4724 45.4613 10.1147C46.0949 9.75692 46.8477 9.57755 47.7209 9.57755C48.5941 9.57755 49.341 9.75692 49.9746 10.1147C50.6082 10.4724 51.0954 10.9813 51.4373 11.6414C51.7791 12.3015 51.9506 13.0885 51.9506 14.0015C51.9506 14.9145 51.7791 15.6965 51.4373 16.3586C51.0954 17.0207 50.6072 17.5306 49.9746 17.8884C49.341 18.2461 48.5881 18.4255 47.7149 18.4255ZM47.7149 16.8776C48.2022 16.8776 48.6192 16.7627 48.9661 16.534C49.3119 16.3052 49.5776 15.9757 49.7621 15.5464C49.9465 15.1171 50.0398 14.6021 50.0398 14.0015C50.0398 13.4009 49.9475 12.8809 49.7621 12.4536C49.5776 12.0263 49.3119 11.6988 48.9661 11.4691C48.6202 11.2403 48.2032 11.1254 47.7149 11.1254C47.2267 11.1254 46.8167 11.2403 46.4698 11.4691C46.1239 11.6988 45.8583 12.0263 45.6738 12.4536C45.4893 12.8809 45.3961 13.3969 45.3961 14.0015C45.3961 14.6062 45.4883 15.1171 45.6738 15.5464C45.8583 15.9757 46.1239 16.3042 46.4698 16.534C46.8157 16.7637 47.2307 16.8776 47.7149 16.8776Z" fill="white"/>
<path d="M53.1957 18.2703V9.73071H55.8093L59.6149 17.3633L59.0485 17.3986V9.73071H60.7888V18.2703H58.2404L54.3406 10.5964L54.9361 10.555V18.2703H53.1957Z" fill="white"/>
<path d="M61.6861 18.2703L64.9423 9.73071H67.2611L70.5063 18.2703H68.5473L66.0932 11.0589L63.645 18.2703H61.6861ZM63.8165 15.9333V14.4681H68.3589V15.9333H63.8165Z" fill="white"/>
<path d="M72.2466 18.4134C71.995 18.4134 71.7825 18.3267 71.609 18.1524C71.4356 17.978 71.3494 17.7654 71.3494 17.5115C71.3494 17.2575 71.4356 17.0449 71.609 16.8705C71.7825 16.6962 71.994 16.6095 72.2466 16.6095C72.4993 16.6095 72.7108 16.6962 72.8842 16.8705C73.0577 17.0449 73.1439 17.2585 73.1439 17.5115C73.1439 17.7644 73.0577 17.978 72.8842 18.1524C72.7108 18.3267 72.4983 18.4134 72.2466 18.4134Z" fill="white"/>
<path d="M75.6331 18.2703V10.6085H72.5945V9.73071H79.7445V10.6085H76.6948V18.2703H75.6331Z" fill="white"/>
<path d="M80.9425 18.2703V9.73071H86.5416V10.6085H82.0052V13.289H85.9752V14.1668H82.0052V17.3925H86.6248V18.2703H80.9425Z" fill="white"/>
<path d="M91.3256 18.4134C90.5236 18.4134 89.8198 18.2239 89.2163 17.844C88.6128 17.4641 88.1436 16.9401 87.8088 16.2699C87.4749 15.5998 87.3075 14.8299 87.3075 13.9602C87.3075 13.0905 87.4679 12.3629 87.7887 11.7069C88.1095 11.0508 88.5687 10.5339 89.1662 10.156C89.7637 9.77808 90.4795 9.58963 91.3136 9.58963C92.1477 9.58963 92.8986 9.80932 93.5321 10.2477C94.1657 10.686 94.5858 11.3552 94.7943 12.2521L93.6675 12.5191C93.4981 11.8157 93.2043 11.2977 92.7853 10.9652C92.3662 10.6326 91.87 10.4674 91.2955 10.4674C90.7211 10.4674 90.1877 10.6195 89.7647 10.9239C89.3416 11.2282 89.0188 11.6454 88.7942 12.1755C88.5697 12.7056 88.4584 13.3122 88.4584 13.9965C88.4584 14.6807 88.5737 15.3075 88.8033 15.8406C89.0328 16.3747 89.3566 16.7909 89.7737 17.0892C90.1907 17.3875 90.682 17.5367 91.2484 17.5367C91.866 17.5367 92.3993 17.3492 92.8474 16.9733C93.2956 16.5974 93.5813 16.0754 93.7026 15.4073L94.8645 15.7278C94.6319 16.6055 94.1978 17.2726 93.5602 17.7291C92.9226 18.1856 92.1777 18.4144 91.3246 18.4144L91.3256 18.4134Z" fill="white"/>
<path d="M96.24 18.2703V9.73071H97.3017V13.419H101.938V9.73071H103V18.2703H101.938V14.2968H97.3017V18.2703H96.24Z" fill="white"/>
</g>
<defs>
<clipPath id="clip0_2_118">
<rect width="103" height="28" fill="white"/>
</clipPath>
</defs>
</svg>
