<svg width="1042" height="365" viewBox="0 0 1042 365" fill="none" xmlns="http://www.w3.org/2000/svg">
<g style="mix-blend-mode:soft-light">
<path d="M-443.996 572L-444.811 570.961C-329.848 500.014 -241.519 423.871 -155.908 350.066C-140.416 336.812 -124.381 322.779 -108.346 309.266C-73.5582 281.979 -31.704 252.353 15.0423 237.8C43.5793 228.704 73.747 227.664 102.556 226.625C108.807 226.625 115.329 226.105 121.58 225.845C199.038 221.687 258.014 189.723 297.151 130.991C303.945 121.115 309.653 110.461 315.904 99.2858C327.59 77.7162 339.82 55.3668 359.66 36.9157C387.11 10.9281 429.78 -2.06574 473.537 1.31264C558.332 9.10892 595.838 62.3835 629.267 109.681C637.421 121.375 645.03 132.29 653.184 141.905C687.156 182.966 719.77 210.253 764.614 210.253C768.963 210.253 773.583 210.253 778.203 209.473C783.639 208.953 789.346 208.174 794.782 207.654C827.395 204.016 861.096 200.118 893.438 202.716C936.108 206.095 974.701 217.01 1007.59 235.201C1024.16 244.037 1046.99 258.07 1055.15 279.64C1057.87 287.176 1059.77 294.972 1061.4 302.509C1063.03 310.565 1064.93 319.141 1068.19 326.937C1082.87 367.218 1129.34 413.736 1189.68 424.391C1225.55 431.147 1258.44 429.068 1287.52 427.509C1290.78 427.509 1293.77 427.249 1297.03 426.989V428.289C1294.04 428.289 1291.05 428.549 1287.79 428.808C1258.71 430.628 1225.83 432.447 1189.68 425.69C1125.81 414.515 1081.51 366.958 1067.11 327.457C1063.84 319.661 1061.94 311.085 1060.31 303.029C1058.68 295.492 1057.05 287.696 1054.33 280.159C1046.45 258.85 1023.89 245.076 1007.31 236.24C974.429 218.309 936.38 207.394 893.71 204.016C861.64 201.417 827.939 205.315 795.325 208.953C789.89 209.733 784.182 210.253 778.747 210.773C726.021 216.75 690.146 187.904 652.64 142.685C644.487 132.81 636.877 121.895 628.724 110.201C595.566 63.1631 558.061 9.88857 474.08 2.35217C469.188 1.83242 464.568 1.83241 459.676 1.83241C421.355 1.83241 385.208 14.8262 361.019 37.4354C341.451 55.8866 329.221 77.976 317.534 99.5457C311.283 110.72 305.576 121.375 298.782 131.251C259.373 190.242 200.125 222.467 122.124 226.625C115.873 226.885 109.35 227.145 103.099 227.405C74.2906 228.444 44.3947 229.484 15.8577 238.579C-30.6168 253.132 -72.1993 282.758 -106.987 309.785C-122.751 323.299 -139.057 337.072 -154.549 350.586C-240.16 424.391 -328.761 500.534 -443.724 571.48L-443.996 572Z" fill="#A8FA79"/>
</g>
<g style="mix-blend-mode:soft-light">
<path d="M-447.801 565.503L-448.616 564.463C-352.677 504.952 -274.133 441.542 -198.306 380.471C-175.204 361.76 -151.287 342.529 -127.099 323.559C-90.6803 296.791 -62.6868 279.38 -36.0523 266.646C-24.0939 260.929 -12.1356 256.251 0.0945726 252.612C20.7499 246.116 41.1335 243.517 65.8656 241.698C70.2141 241.438 74.5626 240.918 78.6393 240.658C87.608 239.879 97.1204 239.359 106.361 238.319C134.626 235.461 160.989 228.704 184.906 217.789C216.16 203.496 242.795 181.926 264.266 153.6C268.886 147.623 273.235 141.126 277.583 134.369C283.29 125.014 288.454 115.398 293.89 105.263C301.5 90.9698 309.381 75.897 319.437 62.1236C325.416 53.8075 331.939 46.531 339.005 40.0341C366.184 15.0861 408.581 2.35215 452.338 5.99041C478.429 8.32929 502.618 15.3459 524.088 27.5601C563.497 49.6495 589.588 82.6538 612.689 111.76C621.658 122.934 630.083 133.849 639.052 143.465C667.045 174.65 691.505 192.061 717.868 200.118C733.903 205.055 750.754 206.355 769.235 204.276C774.67 203.496 780.106 202.976 785.27 202.197C803.751 199.858 822.776 197.259 841.8 196.219C858.651 195.18 873.599 194.92 886.644 195.7C932.575 198.039 971.44 208.694 1002.69 227.405C1027.43 241.698 1042.65 257.03 1049.17 274.442C1052.16 282.238 1053.79 290.554 1055.69 298.351C1057.59 306.667 1059.5 315.243 1062.49 323.039C1072 348.507 1091.57 373.715 1114.67 390.347C1134.78 405.16 1159.24 415.555 1185.6 420.752C1221.21 427.509 1253.82 425.69 1282.36 423.871H1288.06V424.91H1282.36C1253.55 426.989 1220.93 428.808 1185.06 422.052C1158.43 416.854 1133.69 406.459 1113.58 391.646C1079.88 367.218 1065.48 336.033 1060.86 323.559C1057.59 315.502 1055.69 306.927 1054.06 298.611C1052.16 290.814 1050.53 282.498 1047.54 274.702C1041.29 257.55 1026.34 242.477 1001.88 228.444C970.896 209.993 932.032 199.338 886.644 196.999C873.327 196.219 858.651 196.479 841.8 197.519C823.047 198.818 804.023 201.157 785.542 203.496C780.106 204.276 774.67 204.795 769.507 205.575C750.754 207.914 733.903 206.615 717.596 201.417C690.962 193.361 666.502 175.689 638.236 144.504C629.268 134.629 620.842 123.974 611.874 112.539C587.685 82.134 562.953 50.4292 523.545 28.5996C502.074 16.6453 478.157 9.3688 452.338 7.28979C409.125 3.65153 366.999 16.1256 340.093 40.8138C333.026 47.3107 326.504 54.3273 320.524 62.6433C310.469 76.4167 302.859 91.2297 295.249 105.523C290.085 115.398 284.921 125.273 278.942 134.629C274.593 141.386 270.245 147.883 265.625 154.12C244.154 182.706 217.248 204.536 185.721 218.829C161.804 229.743 135.17 236.5 106.905 239.359C97.664 240.398 88.4234 240.918 79.1828 241.698C74.8344 241.958 70.4859 242.217 66.4092 242.737C41.9489 244.556 21.5653 247.155 0.909934 253.652C-11.0484 257.29 -23.0068 261.968 -34.9652 267.685C-61.5997 280.159 -89.5931 297.831 -126.012 324.338C-149.929 343.309 -173.845 362.54 -197.218 381.251C-273.045 442.582 -351.59 505.991 -447.529 565.503H-447.801Z" fill="#A8FA79"/>
</g>
<g style="mix-blend-mode:soft-light">
<path d="M-451.877 559.006L-452.693 557.967C-375.235 509.63 -308.377 458.954 -243.965 409.578C-212.71 385.669 -180.64 361.241 -147.482 337.072C-109.977 311.345 -79.8089 293.413 -52.359 280.939C-40.1289 275.222 -27.8987 270.544 -15.6686 266.906C5.80215 260.409 26.7293 257.81 50.1025 255.471H53.0921C65.3222 253.912 78.0959 252.613 90.3261 250.793C118.591 246.635 144.682 238.579 168.055 226.365C198.223 210.513 224.042 187.384 244.698 157.498C249.046 151.261 253.395 144.504 257.2 137.747C262.092 129.172 266.712 120.076 271.332 110.98C279.214 95.6476 287.096 79.5353 297.695 64.9823C303.674 56.6662 310.197 49.6496 317.263 43.4126C344.17 18.9842 386.296 7.02993 430.053 10.6682C455.872 13.0071 480.06 20.2836 502.075 32.2379C542.842 54.5872 571.379 87.0717 596.654 115.658C605.895 126.053 614.592 135.928 623.561 145.024C651.554 173.61 677.645 189.983 706.182 196.479C723.033 200.378 740.155 201.157 758.908 198.558C763.528 198.039 768.148 197.259 773.04 196.479C792.609 193.621 812.992 190.762 833.104 189.203C851.313 187.644 865.989 187.384 879.035 187.644C927.684 188.943 967.364 199.338 996.988 218.569C1020.36 233.122 1035.31 250.014 1042.1 268.205C1045.09 276.521 1047 285.097 1048.9 293.413C1050.8 301.729 1052.7 310.305 1055.69 318.101C1064.93 344.349 1085.05 370.076 1109.51 386.968C1129.07 400.742 1153.81 410.877 1180.98 416.075C1216.59 422.831 1250.56 421.012 1277.74 419.453H1278.55V420.752H1277.74C1250.29 422.312 1216.32 424.131 1180.44 417.374C1152.99 412.176 1128.26 402.041 1108.42 388.008C1083.69 370.856 1063.57 344.869 1054.33 318.621C1051.34 310.565 1049.44 301.989 1047.54 293.673C1045.64 285.357 1043.73 276.781 1040.74 268.465C1034.22 250.534 1019.27 233.902 996.173 219.349C966.549 200.118 927.14 189.983 878.763 188.683C865.718 188.163 851.041 188.683 832.832 190.242C812.72 191.802 792.609 194.66 773.04 197.519C768.42 198.299 763.528 198.818 758.908 199.598C740.155 202.197 722.761 201.677 705.639 197.519C677.102 190.762 650.467 174.39 622.474 145.544C613.505 136.448 604.808 126.573 595.567 115.918C569.204 86.0322 541.755 54.8471 501.531 32.7576C479.788 20.8033 455.872 13.7867 430.053 11.4478C386.568 7.54968 344.985 19.7638 318.35 43.6724C311.284 49.9094 305.033 56.9261 299.054 65.2421C288.455 79.7952 280.573 95.6476 272.691 110.98C268.343 119.816 263.451 129.172 258.559 137.747C254.754 144.764 250.405 151.261 246.057 157.758C225.401 187.904 199.31 211.032 168.871 226.885C145.226 239.099 119.135 247.415 90.8697 251.573C78.3677 253.392 65.8658 254.692 53.3639 255.991H50.3743C27.0011 258.85 6.07395 261.189 -15.125 267.685C-27.0834 271.324 -39.5853 276.001 -51.5437 281.459C-78.9936 293.933 -109.161 311.864 -146.395 337.592C-179.553 361.501 -211.623 386.189 -242.878 409.838C-307.29 458.954 -374.148 509.89 -451.877 558.227V559.006Z" fill="#A8FA79"/>
</g>
<g style="mix-blend-mode:soft-light">
<path d="M-455.954 552.769L-456.769 551.73C-396.434 514.048 -342.35 474.806 -289.896 436.605C-251.031 408.278 -210.807 379.172 -168.138 350.846C-129.545 326.157 -96.9313 307.966 -68.666 295.232C-56.4359 289.775 -43.9339 285.097 -31.1602 281.459C-10.5049 275.482 10.1505 272.883 30.5341 270.284L35.1543 269.764C49.5587 267.945 62.6042 266.126 75.6497 263.527C103.643 258.07 129.462 248.714 152.564 235.201C182.188 217.789 206.376 194.14 226.488 162.176C230.565 155.679 234.642 148.662 238.175 141.905C242.251 134.109 246.328 125.793 250.133 117.737C258.015 101.105 266.168 83.9531 277.583 68.6205C283.562 60.5643 290.085 53.5477 297.151 47.3107C324.058 23.662 366.184 11.9676 409.669 16.1256C435.216 18.4644 460.22 26.0008 481.691 37.6953C523.545 60.5643 554.528 92.2691 581.978 120.076C591.218 129.691 600.187 138.787 609.156 147.103C637.149 173.61 664.599 188.423 695.311 193.361C712.705 196.219 730.37 196.219 749.123 193.361C753.2 192.841 757.277 192.061 761.353 191.542C782.009 188.423 803.479 185.045 824.678 182.966C842.888 181.407 856.748 180.627 869.522 180.627H871.696C923.063 180.627 963.558 191.022 991.824 210.773C1007.04 221.168 1026.88 238.579 1035.58 263.008C1038.84 271.843 1040.74 280.939 1042.92 289.775C1044.82 298.091 1046.72 306.667 1049.71 314.723C1056.51 335.513 1074.72 364.879 1104.88 385.149C1123.91 398.143 1148.91 407.758 1176.63 413.216C1210.06 419.453 1242.41 418.413 1269.86 416.854V418.153C1242.41 419.713 1210.34 421.012 1176.36 414.515C1148.37 409.058 1123.37 399.442 1104.07 386.448C1073.63 366.178 1055.42 336.552 1048.35 315.502C1045.64 307.446 1043.46 298.87 1041.56 290.554C1039.39 281.719 1037.48 272.883 1034.22 264.047C1025.52 239.879 1005.96 222.727 991.008 212.332C962.743 192.581 922.791 182.446 871.696 182.186H869.522C856.748 182.186 842.888 182.966 824.678 184.525C803.479 186.604 782.009 189.982 761.353 193.101C757.277 193.621 753.2 194.4 749.123 194.92C729.827 197.779 712.161 197.779 694.767 194.92C663.784 189.723 636.334 174.91 608.069 148.402C599.1 139.826 590.131 130.731 580.891 121.115C553.713 93.0488 522.729 61.6038 480.875 38.7348C459.405 27.0403 434.672 19.7638 409.397 17.425C403.689 16.9052 397.982 16.6453 392.546 16.6453C355.584 16.6453 321.068 28.0798 297.967 48.3502C290.9 54.5872 284.378 61.6038 278.398 69.66C267.255 84.9927 259.102 102.144 251.22 118.776C247.415 126.833 243.339 135.149 239.262 142.945C235.729 149.962 231.652 156.718 227.575 163.475C207.192 195.44 183.003 219.348 153.107 236.76C129.734 250.274 103.643 259.889 75.6497 265.346C62.6042 267.945 49.5587 269.764 35.1543 271.583L30.5341 272.103C10.4223 274.702 -10.5049 277.301 -30.8884 283.278C-43.6622 286.916 -56.1641 291.594 -68.1225 296.791C-96.6595 309.525 -129.001 327.717 -167.594 352.145C-209.992 380.471 -250.216 409.577 -289.08 437.904C-341.534 475.846 -395.619 515.347 -455.954 553.029V552.769Z" fill="#A8FA79"/>
</g>
<g style="mix-blend-mode:soft-light">
<path d="M-460.302 546.792L-461.118 545.753C-416.274 517.686 -374.42 488.58 -333.924 460.253C-288.809 428.808 -242.062 396.064 -190.424 364.619C-150.2 340.71 -116.228 322.779 -85.7881 309.785C-73.2862 304.328 -60.2407 299.91 -47.467 296.272C-28.9858 291.074 -10.2329 288.216 7.97642 285.617C11.7814 285.097 15.858 284.577 19.663 283.798C35.4263 281.459 48.4718 278.86 60.1584 276.261C88.1519 269.764 113.971 258.85 136.801 244.037C165.338 225.585 188.711 200.378 208.007 167.113C212.356 159.837 216.161 152.301 219.15 146.323C222.683 139.307 225.945 131.77 229.206 124.754C237.088 107.082 245.513 88.6309 257.471 72.5186C263.179 64.7223 269.973 57.7057 277.312 51.4687C304.218 28.5996 346.344 17.4249 389.557 21.583C415.105 23.9218 440.108 31.4582 461.851 42.8928C505.064 66.0217 538.493 97.2068 568.117 124.494C577.358 133.07 586.327 141.386 595.295 149.182C623.561 173.87 651.826 186.864 684.711 190.242C702.377 192.062 720.587 191.282 739.883 188.163L747.493 186.864C770.051 182.966 793.424 179.068 816.797 176.469C831.201 174.91 848.052 173.35 864.902 173.091C867.892 173.091 870.882 173.091 873.871 173.091C923.607 173.091 961.928 182.966 987.476 202.457C1007.59 217.269 1022.81 236.76 1030.15 257.55C1033.41 266.906 1035.85 276.521 1038.03 285.877C1039.93 293.933 1041.83 302.249 1044.55 310.305C1051.34 331.875 1069.55 362.02 1101.08 382.031C1120.1 394.245 1144.29 403.341 1173.37 408.798C1205.44 414.775 1236.16 413.995 1261.97 412.696V413.996C1236.16 415.555 1205.17 416.074 1173.1 410.097C1143.75 404.64 1119.29 395.544 1100.26 383.07C1068.47 362.8 1049.99 332.135 1043.19 310.565C1040.47 302.509 1038.57 294.193 1036.67 285.877C1034.49 276.521 1032.32 266.906 1028.79 257.55C1021.72 237.02 1006.5 217.789 986.66 203.236C959.754 182.706 918.715 172.831 864.902 174.13C848.052 174.13 831.201 175.949 816.797 177.508C793.424 180.107 770.051 184.005 747.493 187.904L739.883 189.203C720.315 192.581 702.105 193.101 684.44 191.282C651.282 187.904 622.474 174.91 594.208 149.962C585.24 142.165 576.543 133.849 567.03 125.273C537.678 97.9865 504.249 67.0612 461.036 43.9323C439.293 32.4977 414.561 24.9613 389.285 22.6225C346.072 18.4644 304.49 29.3792 277.855 52.2483C270.517 58.4853 263.994 65.502 258.287 73.0384C246.6 89.1507 238.175 107.342 230.293 125.014C227.032 132.29 223.771 139.567 220.237 146.583C217.248 152.56 213.443 160.097 209.094 167.373C189.798 200.897 166.153 226.105 137.344 244.816C114.243 259.629 88.4236 270.544 60.4301 277.041C48.4718 279.9 35.6981 282.238 19.663 284.577C15.858 285.097 11.7814 285.617 7.97642 286.396C-9.96113 288.995 -28.714 291.854 -47.1952 297.051C-59.9689 300.43 -72.7426 305.108 -85.2445 310.305C-115.412 323.299 -149.657 340.97 -189.608 364.879C-241.247 396.324 -287.993 429.068 -333.109 460.513C-373.604 488.84 -415.459 517.946 -460.302 546.012V546.792Z" fill="#A8FA79"/>
</g>
<g style="mix-blend-mode:soft-light">
<path d="M-464.651 541.075L-465.466 540.035C-433.396 519.765 -402.413 498.975 -372.789 478.704C-323.597 445.44 -272.774 411.137 -213.525 377.873C-171.671 355.004 -134.709 336.812 -103.454 324.078C-90.4085 318.621 -77.3631 314.463 -64.0458 310.825C-47.4672 306.407 -30.6167 303.808 -14.5816 301.209C-8.60246 300.17 -2.3515 299.13 3.62768 298.091C18.5756 295.492 31.8929 292.633 44.6666 289.255C72.66 281.719 98.4792 269.504 121.037 253.652C148.759 233.901 171.317 207.654 189.798 172.831C193.331 166.074 196.864 159.057 200.125 151.781C202.843 145.544 205.833 139.047 208.551 132.81C216.704 113.839 224.857 94.3482 237.359 77.4563C243.067 69.66 249.861 62.6433 257.199 56.6662C283.834 34.3169 325.96 23.662 369.445 28.0799C394.992 30.4188 419.996 37.9551 442.01 49.3897C486.854 73.0384 523.001 103.444 554.8 130.471C563.768 138.007 572.194 145.024 580.619 152.041C608.612 174.91 637.965 186.084 673.296 187.644C691.234 188.423 709.715 187.124 729.555 183.486L734.175 182.706C758.092 178.288 783.096 173.61 808.099 170.752C823.863 168.933 840.441 167.113 857.564 166.334C913.279 163.735 956.764 173.61 982.583 194.66C1001.34 209.473 1016.01 229.743 1023.89 252.093C1027.43 262.228 1029.87 272.623 1032.32 282.758C1034.22 290.554 1036.12 298.611 1038.57 306.407C1046.72 334.473 1069.55 363.06 1096.46 379.692C1114.94 391.126 1138.59 399.442 1169.02 405.419C1201.91 411.656 1232.89 410.617 1253.28 409.577V410.877C1232.89 412.176 1201.91 412.956 1168.75 406.719C1138.04 401.002 1114.12 392.426 1095.64 380.991C1068.19 364.359 1045.36 335.253 1036.94 306.927C1034.49 299.13 1032.59 291.074 1030.69 283.278C1028.24 273.143 1025.8 263.008 1022.26 252.872C1014.38 230.783 999.977 210.513 981.496 195.96C958.394 177.249 921.704 167.373 874.414 167.373C868.978 167.373 863.271 167.373 857.292 167.893C840.441 168.673 823.591 170.492 808.099 172.311C783.096 175.429 758.364 179.847 734.447 184.265L729.827 185.045C709.715 188.683 691.234 189.982 673.296 189.203C637.693 187.644 608.069 176.469 579.803 153.34C571.378 146.323 562.953 139.307 553.984 131.77C522.186 105.003 486.039 74.5976 441.467 50.9489C419.724 39.5144 394.721 32.2379 369.445 29.6391C326.232 25.2212 284.649 35.8761 258.286 57.9656C250.948 63.9427 244.426 70.9593 238.718 78.7556C226.216 95.6475 218.063 115.138 209.909 133.849C207.192 140.086 204.474 146.583 201.484 152.82C198.223 160.357 194.69 167.373 191.157 174.13C172.675 208.953 149.846 235.721 121.852 255.471C99.0228 271.583 73.2036 283.538 44.9384 291.334C32.1646 294.712 18.8474 297.831 3.89942 300.17C-2.07976 301.209 -8.33073 302.249 -14.3099 303.288C-30.345 305.887 -47.1954 308.486 -63.774 312.904C-77.0913 316.282 -89.865 320.7 -102.91 325.897C-133.894 338.631 -170.856 356.563 -212.71 379.432C-271.686 412.696 -322.51 447 -371.702 480.264C-401.598 500.534 -432.309 521.324 -464.651 541.594V541.075Z" fill="#A8FA79"/>
</g>
<g style="mix-blend-mode:soft-light">
<path d="M-469.543 535.358L-470.358 534.318C-448.072 520.285 -426.33 505.992 -405.403 491.958C-354.851 458.434 -302.669 423.871 -238.257 391.127C-195.316 369.557 -155.364 351.366 -122.207 338.372C-109.161 333.434 -95.844 329.016 -81.7114 325.638C-66.4916 321.74 -51.2719 319.141 -36.5957 316.802C-28.714 315.503 -20.8324 314.203 -12.9507 312.644C1.99725 309.785 15.5863 306.407 28.6318 302.509C56.897 293.673 82.7163 280.679 105.274 263.527C132.18 242.997 153.923 215.191 171.589 179.068C174.578 172.831 177.84 166.074 181.373 157.498C183.547 152.301 185.721 146.843 187.896 141.646C196.049 121.375 204.474 100.585 217.52 82.6538C223.227 75.1174 230.022 68.1008 237.631 61.8637C264.266 40.294 306.12 29.899 349.877 34.5768C375.696 37.1755 400.7 44.7119 422.715 56.1465C469.461 80.8347 508.597 110.72 542.842 136.968C550.995 143.205 558.605 149.182 566.487 154.899C593.937 175.43 622.202 184.785 658.349 184.785C659.436 184.785 660.795 184.785 661.882 184.785C680.363 184.525 699.116 182.446 719.5 178.288C745.591 173.091 772.225 167.633 799.403 163.995H800.219C816.254 161.916 833.104 159.577 849.955 158.538C890.722 155.679 945.893 158.018 977.963 185.825C995.357 200.378 1009.49 221.947 1017.92 246.116C1021.99 257.29 1024.71 268.725 1027.43 279.9C1029.06 287.176 1030.96 294.453 1033.13 301.729C1041.02 330.575 1064.39 359.941 1092.66 376.573C1115.48 390.347 1143.75 396.844 1165.76 401.002C1190.22 405.42 1217.13 406.979 1245.4 405.42V406.719C1216.86 408.278 1189.95 406.719 1165.49 402.301C1143.48 398.143 1115.21 391.646 1091.84 377.613C1063.57 360.981 1039.93 331.355 1031.78 301.989C1029.6 294.713 1027.97 287.436 1026.07 280.159C1023.35 269.245 1020.63 257.81 1016.56 246.636C1008.13 222.467 993.998 201.417 976.876 186.864C945.35 159.317 890.45 156.978 849.955 159.837C833.104 160.876 816.254 162.955 800.219 165.035H799.403C772.497 168.673 745.591 174.13 719.5 179.328C699.116 183.486 680.363 185.565 661.61 185.825C660.251 185.825 659.164 185.825 657.805 185.825C621.387 185.825 592.85 176.469 565.128 155.679C557.518 149.962 549.636 143.985 541.483 137.748C507.239 111.5 468.374 81.6143 421.627 56.9261C399.885 45.4916 374.881 38.215 349.334 35.6163C306.12 31.1984 264.538 41.3335 237.903 62.6434C230.293 68.6205 223.771 75.6371 218.063 83.1735C205.018 101.105 196.593 121.895 188.711 141.906C186.537 147.103 184.362 152.56 182.188 157.758C178.655 166.334 175.394 173.091 172.404 179.328C154.738 215.71 132.724 243.517 105.546 264.307C82.9881 281.719 56.897 294.713 28.6318 303.548C15.5863 307.706 1.99725 310.825 -12.9507 313.684C-20.8324 315.243 -28.9858 316.542 -36.8675 317.842C-51.5437 320.18 -66.7634 322.779 -81.9831 326.677C-96.1157 330.056 -109.433 334.214 -122.479 339.411C-155.364 352.145 -195.588 370.336 -238.257 392.166C-302.398 425.17 -354.851 459.734 -405.131 492.998C-426.058 506.771 -447.801 521.324 -470.087 535.358H-469.543Z" fill="#A8FA79"/>
</g>
<g style="mix-blend-mode:soft-light">
<path d="M-474.163 529.9L-474.979 528.861C-460.574 519.765 -446.442 510.409 -432.853 501.574C-383.117 469.089 -331.75 435.565 -264.077 404.12C-219.504 383.33 -177.378 365.659 -141.775 352.665C-128.186 347.727 -114.597 343.569 -99.9208 340.191C-86.0599 337.072 -72.4709 334.733 -59.1536 332.394C-49.3695 330.835 -39.3136 329.016 -29.5295 327.197C-14.8533 324.338 -0.720635 320.44 12.5966 315.762C41.4054 305.887 67.2246 291.854 89.7824 273.403C116.145 251.833 137.344 223.247 154.195 185.565C156.912 179.328 159.902 172.311 163.163 163.735C165.066 159.057 166.697 154.38 168.599 149.702C176.481 128.652 184.906 106.822 198.495 88.1112C204.202 80.5748 210.997 73.5582 218.607 67.581C245.513 46.5311 287.367 36.6558 331.124 41.3336C356.943 44.1922 381.947 51.4687 403.961 62.9033C454.513 89.1507 497.182 119.296 535.232 146.063C540.939 150.222 546.646 154.12 552.354 158.018C580.347 177.768 610.787 185.305 650.467 182.186C669.491 180.887 688.516 178.028 709.172 173.61C735.263 167.893 762.984 162.176 790.434 158.018H791.521C807.828 155.419 824.678 153.08 842.072 151.521C884.742 147.623 941.816 148.922 972.799 177.768C988.834 192.062 1002.15 213.891 1011.66 240.658C1016.28 253.392 1019.27 266.126 1022.54 278.6C1024.17 284.837 1025.8 291.074 1027.43 297.311C1033.13 320.18 1052.7 353.964 1088.03 373.715C1110.32 386.189 1137.77 392.426 1161.69 396.844C1192.4 402.301 1219.58 402.561 1236.97 401.521V402.821C1219.58 403.86 1192.13 403.86 1161.42 398.143C1137.5 393.725 1109.78 387.228 1087.22 374.754C1051.34 355.004 1031.78 320.96 1025.8 297.571C1024.17 291.334 1022.54 284.837 1020.9 278.6C1017.91 266.126 1014.65 253.392 1010.31 240.658C1001.06 214.151 987.747 192.321 971.712 178.288C941.001 149.702 884.199 148.402 842.072 152.301C824.678 153.86 807.828 156.199 791.521 158.538H790.434C762.984 162.696 735.263 168.673 709.172 174.13C688.516 178.548 669.22 181.407 650.195 182.706C609.971 185.565 579.532 178.028 551.267 158.278C545.559 154.38 539.852 150.481 534.145 146.323C496.367 119.816 453.426 89.6705 403.146 63.423C381.404 52.2483 356.4 44.9718 330.852 42.1132C287.639 37.4354 245.785 47.0508 219.15 68.1007C211.54 74.0779 204.746 80.8347 199.31 88.3711C185.721 106.822 177.568 128.652 169.414 149.702C167.784 154.38 165.881 159.057 163.979 163.735C160.446 172.571 157.728 179.587 155.01 185.825C138.159 223.507 116.961 252.613 90.326 274.182C67.7682 292.633 41.6772 306.927 12.8684 316.802C-0.4489 321.48 -14.8533 325.118 -29.5295 328.236C-39.5854 330.315 -49.6413 331.875 -59.1536 333.434C-72.4709 335.513 -86.0599 337.852 -99.9208 341.23C-114.597 344.609 -128.186 348.767 -141.775 353.704C-177.378 366.698 -219.504 384.37 -264.077 405.16C-331.478 436.605 -382.845 470.129 -432.581 502.613C-446.442 511.709 -460.574 520.805 -474.979 529.9H-474.163Z" fill="#A8FA79"/>
</g>
<g style="mix-blend-mode:soft-light">
<path d="M-479.055 524.443L-479.871 523.403C-471.446 517.946 -463.292 512.748 -455.139 507.291C-408.392 476.886 -359.744 445.441 -291.255 416.335C-244.508 396.584 -198.849 378.653 -162.159 366.178C-148.57 361.501 -134.709 357.603 -118.674 354.224C-105.9 351.366 -93.3981 349.287 -81.168 347.467C-69.7532 345.648 -58.0666 343.829 -46.6518 341.23C-31.9756 338.112 -17.2994 333.954 -3.43861 328.756C25.3702 318.361 52.2765 302.509 74.5625 283.538C100.653 261.189 121.037 231.303 137.072 192.581C139.79 186.344 142.508 179.328 145.769 170.232C147.128 166.334 148.487 162.436 149.846 158.538C157.728 136.448 165.881 113.319 180.285 94.0883C185.993 86.5519 192.787 79.5353 200.669 73.5582C227.303 53.028 269.701 43.6724 313.458 48.3502C339.277 51.2088 364.553 58.4854 386.295 69.9199C444.456 100.066 494.192 132.29 538.221 160.876H538.764C567.03 179.588 596.926 185.045 639.323 179.847C657.805 177.509 677.373 173.87 699.115 168.933C724.119 163.215 753.2 156.718 782.008 152.041L789.89 150.741C804.566 148.402 819.514 146.064 835.006 144.244C879.306 139.047 938.554 139.307 968.994 169.452C988.562 188.163 999.977 215.97 1006.77 235.201C1011.94 250.014 1015.74 265.087 1019.27 279.64C1020.36 284.318 1021.45 288.995 1022.81 293.413C1028.79 318.621 1050.26 352.405 1084.77 371.116C1105.97 382.811 1132.06 388.268 1158.97 393.206C1183.16 397.623 1208.16 399.183 1229.9 398.143V399.443C1208.16 400.482 1182.89 398.923 1158.7 394.505C1131.52 389.567 1105.43 384.11 1084.23 372.415C1049.44 353.704 1027.7 319.401 1021.72 293.933C1020.63 289.255 1019.27 284.577 1018.19 280.16C1014.65 265.606 1010.85 250.794 1005.68 235.981C998.89 217.01 987.475 189.463 968.178 170.752C938.283 141.126 879.578 140.866 835.278 146.064C819.786 147.623 804.838 150.222 790.162 152.301L782.28 153.6C753.471 158.278 724.663 164.775 699.659 170.492C677.916 175.43 658.348 179.068 639.867 181.407C597.197 186.864 567.03 181.407 538.493 162.696H537.949C494.192 133.849 444.456 101.625 386.024 71.4792C364.281 60.3045 339.277 53.0279 313.73 50.1693C270.245 45.4915 228.391 54.5872 201.756 75.1174C193.874 81.0945 187.352 87.8513 181.644 95.3877C167.512 114.619 159.358 137.488 151.477 159.577C150.118 163.475 148.759 167.373 147.128 171.272C143.867 180.107 141.149 187.384 138.431 193.621C122.396 232.602 101.741 262.748 75.6497 285.097C53.3636 304.328 26.1855 320.18 -2.89508 330.575C-16.7559 335.773 -31.432 339.931 -46.38 343.049C-58.0666 345.388 -69.7532 347.467 -81.168 349.287C-93.3981 351.366 -105.9 353.445 -118.674 356.043C-134.709 359.682 -148.57 363.32 -161.887 367.998C-198.306 380.472 -244.237 398.143 -290.983 417.894C-359.2 447 -407.849 478.445 -454.595 508.85C-462.749 514.308 -471.174 519.505 -479.327 524.963L-479.055 524.443Z" fill="#A8FA79"/>
</g>
<g style="mix-blend-mode:soft-light">
<path d="M-484.491 519.505L-485.306 518.466C-480.958 515.607 -476.609 512.748 -472.261 510.15C-430.135 482.863 -386.922 454.536 -320.335 428.808C-272.502 410.097 -224.125 392.946 -184.173 380.212C-169.768 375.534 -155.092 371.896 -139.057 368.517C-127.371 366.178 -115.684 364.359 -104.541 362.54C-91.4954 360.461 -78.1782 358.382 -64.8609 355.523C-49.3694 352.145 -34.4214 347.467 -20.5605 342.01C9.0636 330.575 36.5135 313.943 58.7996 293.933C84.6188 270.804 104.731 239.879 119.95 199.858C122.94 192.321 125.658 184.265 128.104 177.249C129.191 174.13 130.278 170.752 131.365 167.633C139.247 144.504 147.128 120.336 162.076 100.325C167.784 92.789 174.578 85.7723 182.732 80.055C209.638 60.0446 252.036 50.9489 296.064 55.8866C321.884 58.7452 347.159 66.2816 368.902 77.4563C421.084 104.223 472.179 132.81 524.904 164.515C557.79 184.525 589.86 184.005 627.638 177.249C645.032 174.13 664.328 169.972 688.245 163.995C711.346 158.278 741.786 151.001 772.497 145.544C776.302 145.024 780.107 144.244 783.912 143.465C797.773 141.126 812.177 138.527 826.853 136.708C864.631 131.51 932.848 127.612 964.103 160.617C981.497 178.288 991.281 202.976 1000.79 228.964C1007.32 247.415 1011.66 265.347 1016.28 284.317L1017.37 288.476C1023.08 314.723 1045.09 349.286 1080.7 367.738C1102.17 378.912 1128.8 383.85 1152.45 388.008L1155.44 388.528C1180.44 392.946 1203.54 394.765 1222.29 393.725V395.025C1203.54 396.064 1180.17 394.245 1155.16 389.827L1152.18 389.307C1128.53 385.149 1101.62 380.212 1080.15 369.037C1044.01 350.586 1021.99 315.503 1016.28 288.995L1015.2 284.837C1010.58 265.866 1006.23 247.935 999.706 229.744C990.194 203.756 980.409 179.068 963.287 161.656C932.576 129.172 864.902 133.07 827.125 138.267C812.449 140.086 798.044 142.685 784.455 145.024C780.65 145.804 776.845 146.323 773.04 147.103C742.329 152.301 712.161 159.577 689.06 165.554C664.872 171.531 645.575 175.689 628.181 178.808C590.132 185.825 558.062 186.084 524.632 165.814C471.907 134.109 420.812 105.523 368.63 78.7556C346.888 67.581 321.884 60.3045 296.064 57.4458C252.308 52.5082 210.453 61.344 183.819 81.3544C175.937 87.0717 169.143 93.8285 163.435 101.365C148.759 121.115 140.606 145.024 132.996 168.153C131.909 171.271 130.822 174.65 129.734 177.768C127.288 184.785 124.571 192.841 121.581 200.378C106.361 240.658 86.2495 271.584 60.1585 294.713C37.8724 314.983 10.1507 331.615 -19.7452 343.049C-33.8778 348.507 -48.8258 353.185 -64.3173 356.563C-77.6346 359.422 -90.9519 361.501 -103.997 363.58C-115.14 365.399 -126.827 367.218 -138.514 369.557C-154.549 372.675 -169.225 376.573 -183.357 380.991C-223.309 393.725 -271.415 410.877 -319.52 429.588C-385.834 455.316 -427.417 482.343 -471.174 510.929C-475.522 513.788 -479.871 516.647 -484.219 519.245L-484.491 519.505Z" fill="#A8FA79"/>
</g>
<g style="mix-blend-mode:soft-light">
<path d="M-489.655 514.568L-490.47 513.528L-486.393 510.929C-448.888 485.981 -413.284 462.333 -350.503 440.503C-300.495 422.831 -248.041 405.939 -207.002 393.725C-192.326 389.307 -177.378 385.929 -159.984 382.551C-149.385 380.472 -138.785 378.912 -128.729 377.613C-113.238 375.274 -98.8335 373.195 -83.6138 369.817C-67.8504 366.178 -52.3589 361.501 -37.6827 355.524C-7.24325 343.309 20.7502 325.898 43.308 304.848C69.399 280.679 88.4237 250.014 103.372 208.174C106.361 200.118 108.807 191.802 110.982 185.305C111.797 182.706 112.612 179.847 113.428 177.249C121.037 153.34 128.919 128.392 144.139 107.862C149.846 100.325 156.913 93.5686 165.066 87.5914C192.244 67.8409 234.642 59.265 278.671 64.4625C304.218 67.3211 330.309 75.1174 351.78 86.0322C362.107 91.2297 372.435 96.6871 382.491 101.625C428.422 125.014 471.907 147.103 511.315 169.193C543.929 187.644 575.727 185.565 615.951 176.209C636.606 171.531 657.533 165.814 677.645 160.617C701.018 154.38 731.73 146.583 763.256 140.866C767.877 140.086 772.497 139.047 777.117 138.267C790.434 135.669 804.295 133.07 818.7 130.991C857.836 124.754 928.499 119.296 959.482 153.34C975.517 170.232 983.943 193.621 992.096 216.23C993.183 219.089 993.999 221.687 995.086 224.546C1002.97 246.376 1008.13 267.426 1011.94 285.357C1017.37 311.605 1039.93 347.727 1076.35 365.919C1096.46 376.054 1121.46 380.212 1143.75 384.11C1146.47 384.63 1149.19 385.149 1151.63 385.409C1176.91 389.827 1198.11 391.386 1214.41 390.607V391.906C1198.11 392.686 1176.91 391.127 1151.63 386.709C1148.91 386.189 1146.2 385.669 1143.48 385.409C1121.19 381.511 1096.19 377.093 1075.8 367.218C1038.57 349.027 1016.28 313.164 1010.58 285.877C1006.5 268.205 1001.61 246.895 993.727 225.326C992.64 222.467 991.824 219.868 990.737 217.01C982.584 194.4 974.159 171.271 958.395 154.639C927.684 121.115 857.836 126.313 818.972 132.55C804.567 134.629 790.706 137.488 777.389 139.827C772.769 140.866 768.148 141.646 763.528 142.425C732.002 148.143 701.29 155.939 678.189 162.176C658.349 167.373 637.15 173.091 616.495 177.768C575.727 187.124 543.929 189.203 511.043 170.752C471.635 148.662 428.422 126.573 382.219 103.444C372.163 98.2464 361.836 93.0489 351.508 87.8513C330.309 76.9365 304.49 69.4001 278.942 66.5415C235.186 61.344 193.059 69.9199 166.153 89.4106C158 95.1279 151.205 101.885 145.498 109.421C130.278 129.691 122.396 154.639 114.786 178.548C113.971 181.147 113.156 184.005 112.34 186.604C110.438 192.841 107.72 201.157 104.731 209.473C89.7826 251.573 70.4862 282.239 44.3952 306.667C21.5656 327.717 -6.69968 345.388 -37.1392 357.603C-51.8154 363.58 -67.3069 368.517 -83.342 371.896C-98.5617 375.274 -112.966 377.613 -128.458 379.692C-138.514 381.251 -149.113 382.811 -159.712 384.63C-176.835 387.748 -191.783 391.386 -206.459 395.804C-247.77 408.018 -299.952 425.17 -349.959 442.582C-412.469 464.671 -448.072 488.06 -485.578 513.008L-489.655 515.607V514.568Z" fill="#A8FA79"/>
</g>
<g style="mix-blend-mode:soft-light">
<path d="M-495.09 509.63L-495.906 508.59C-467.912 489.36 -438.832 469.349 -382.301 451.418C-328.489 434.266 -273.317 417.894 -231.191 406.459C-203.469 398.663 -178.737 395.285 -154.821 391.906C-137.427 389.567 -121.12 387.228 -103.997 383.33C-53.9897 371.896 -7.51519 347.727 27.001 314.983C53.3638 290.035 72.1167 258.59 86.5211 215.71C89.5107 207.134 92.2285 197.779 94.9463 188.943C102.556 163.215 110.438 136.448 126.745 114.619C144.682 89.4106 178.655 73.818 222.955 71.2193C262.907 68.8804 304.761 77.1965 335.201 93.8285C364.281 108.641 391.731 121.635 418.638 134.109C446.359 147.103 472.722 159.577 497.726 172.571C530.068 189.463 559.964 186.084 603.992 173.61C611.874 171.272 619.756 169.193 627.637 166.854C667.861 155.159 709.443 143.205 753.2 134.369C822.504 118.517 918.987 102.145 954.318 144.244C968.722 160.357 976.061 181.926 983.399 202.976C985.301 208.174 986.932 213.371 988.834 218.309C995.901 237.8 1001.61 257.55 1006.23 280.419C1011.39 307.446 1034.22 344.609 1072 362.28C1091.3 371.376 1114.94 375.274 1136.14 378.652C1140.22 379.432 1144.29 379.952 1148.1 380.731C1167.12 383.85 1189.14 387.228 1206.53 386.189V387.488C1188.87 388.528 1166.85 385.149 1147.83 382.031C1144.02 381.251 1139.94 380.731 1135.87 379.952C1114.67 376.573 1090.75 372.675 1071.46 363.32C1033.13 345.388 1010.03 307.966 1004.87 280.419C999.977 257.55 994.542 238.06 987.475 218.569C985.573 213.631 983.67 208.434 982.04 203.236C974.702 182.446 967.364 160.876 953.231 145.024C918.171 103.704 822.504 119.816 753.472 135.668C709.715 144.244 668.133 156.199 627.909 167.893C620.027 170.232 612.146 172.571 604.264 174.65C568.389 184.785 533.057 192.321 497.182 173.61C472.178 160.617 445.816 148.143 418.094 135.149C391.459 122.415 363.738 109.421 334.657 94.6081C304.761 78.2359 263.179 69.66 223.227 72.2588C179.47 74.8575 145.498 90.1902 127.832 115.138C111.525 136.968 103.643 163.475 96.0334 188.943C93.3156 197.779 90.5978 207.134 87.6082 215.71C73.2038 258.59 54.4509 290.295 27.8164 315.503C-6.69983 348.247 -53.4462 372.675 -103.726 384.37C-120.848 388.268 -137.427 390.607 -154.821 392.946C-178.737 396.324 -203.469 399.702 -231.191 407.499C-273.317 419.193 -328.489 435.565 -382.301 452.457C-438.56 470.389 -467.641 490.139 -495.634 509.37L-495.09 509.63Z" fill="#A8FA79"/>
</g>
<g style="mix-blend-mode:soft-light">
<path d="M-496.721 511.969L-497.265 510.67C-497.265 510.67 -495.09 509.63 -493.46 509.11C-489.927 507.551 -485.578 505.732 -482.589 504.432C-475.794 501.314 -468.456 497.936 -461.118 494.817C-455.954 492.478 -450.79 490.399 -445.626 488.06C-432.853 482.343 -418.72 475.066 -401.054 465.711C-399.152 464.671 -396.978 463.632 -395.075 462.333C-388.009 458.694 -380.942 454.796 -373.333 450.898C-359.744 444.141 -343.708 436.345 -326.043 429.328C-286.906 413.996 -242.062 398.143 -192.598 382.551C-167.323 374.494 -143.949 370.336 -121.392 366.698C-105.9 364.099 -91.2239 361.501 -76.0042 357.862C-43.3905 349.546 -12.1357 335.253 15.0424 316.542C25.37 309.266 35.1542 301.469 44.3948 292.634C68.3115 270.024 86.5208 240.918 102.012 201.417C104.73 194.66 107.176 187.644 109.894 180.627C118.863 155.939 128.103 130.471 146.313 109.941C179.742 70.9594 251.22 65.7619 304.489 80.8347C319.165 84.7328 333.298 90.1902 346.343 96.947C375.968 112.28 403.961 125.793 431.411 138.787C455.599 150.222 478.429 161.136 500.443 172.571C533.872 189.983 565.942 184.005 601.274 175.17C614.591 171.791 627.908 168.413 642.041 164.515C676.285 155.679 711.889 146.323 748.851 138.787C754.015 137.748 759.45 136.448 764.886 135.409C776.844 132.81 789.346 130.211 802.12 127.872C843.703 119.816 918.171 110.98 951.6 143.205C953.23 144.504 954.589 146.064 955.948 147.623C969.809 162.696 977.962 182.706 985.844 201.937C987.475 205.835 988.834 209.473 990.464 213.371C991.823 216.75 992.91 219.608 993.997 222.467C1000.25 238.579 1005.41 255.211 1010.03 273.663C1011.93 281.459 1014.92 289.775 1018.73 297.831C1030.42 322.779 1050.8 344.089 1074.17 356.823C1092.65 366.958 1115.76 371.896 1135.87 376.573C1139.4 377.353 1143.21 378.133 1146.74 378.912C1164.68 382.811 1185.06 386.969 1202.45 387.228V388.528C1185.06 388.528 1164.4 384.37 1146.47 380.212C1142.93 379.432 1139.4 378.652 1135.6 377.873C1115.21 373.455 1092.11 368.257 1073.36 358.122C1049.71 345.388 1029.33 323.559 1017.37 298.611C1013.57 290.295 1010.58 281.979 1008.4 274.182C1003.78 255.731 998.618 239.099 992.367 222.987C991.28 220.128 990.193 217.27 988.834 213.891C987.203 210.253 985.572 206.355 984.213 202.457C976.332 183.226 968.178 163.475 954.589 148.662C953.23 147.103 951.871 145.804 950.241 144.244C917.355 112.54 843.159 121.115 802.12 129.172C789.346 131.51 777.116 134.109 765.158 136.708C759.722 137.748 754.287 139.047 749.123 140.086C712.161 147.623 676.557 156.718 642.313 165.814C628.18 169.452 614.591 173.091 601.274 176.469C565.399 185.305 533.057 191.282 499.356 173.61C477.342 162.176 454.512 151.261 430.595 139.827C403.417 126.833 375.152 113.319 345.528 97.9865C332.483 91.2297 318.622 85.7723 303.946 81.8742C250.948 67.0613 180.285 71.9989 147.128 110.461C129.19 130.731 119.95 156.199 110.981 180.627C108.535 187.384 105.817 194.66 103.099 201.417C87.6079 241.178 69.1268 270.284 45.2101 293.153C35.9695 301.729 25.9136 309.785 15.5859 317.062C-11.5921 335.773 -43.1187 350.066 -75.7324 358.382C-91.2239 362.28 -105.9 364.619 -121.392 367.218C-143.678 371.116 -167.051 375.014 -192.326 383.07C-241.791 398.663 -286.634 414.255 -325.499 429.848C-342.893 436.865 -359.2 444.661 -372.789 451.418C-380.399 455.316 -387.465 459.214 -394.532 462.852C-396.434 463.892 -398.608 464.931 -400.511 466.231C-418.176 475.846 -432.309 482.863 -445.355 488.58C-450.518 490.919 -455.682 493.258 -460.846 495.337C-467.912 498.455 -475.25 501.574 -482.045 504.952C-485.035 506.252 -489.383 508.071 -492.916 509.63C-494.275 510.15 -495.634 510.669 -496.721 511.189V511.969Z" fill="#A8FA79"/>
</g>
<g style="mix-blend-mode:soft-light">
<path d="M-498.624 514.308V513.008C-495.09 512.228 -482.86 508.071 -477.696 505.992C-469.815 502.873 -461.39 500.014 -453.508 497.156C-443.996 493.777 -433.94 490.139 -424.427 486.501C-405.403 479.224 -383.932 468.569 -364.092 456.875C-358.113 453.497 -352.405 449.858 -346.698 446.48C-341.262 443.361 -335.827 439.723 -330.119 436.605L-328.489 435.565C-311.638 425.69 -294.244 415.295 -275.22 406.199C-234.996 386.708 -193.413 371.116 -158.082 358.382C-134.709 349.806 -112.694 345.388 -91.4954 341.23C-78.4499 338.631 -64.8608 336.033 -51.2718 332.394C-21.6476 324.078 7.43295 310.565 32.7086 293.153C42.4927 286.396 51.7333 278.86 60.1585 271.064C82.1728 250.793 99.8385 225.066 116.961 188.163C119.407 183.226 121.581 178.028 124.027 172.831C134.626 149.442 145.226 125.533 165.066 106.822C199.582 73.0384 267.799 70.6995 316.992 85.5124C330.853 89.6704 343.898 94.868 356.128 101.365C387.111 117.737 416.464 132.03 445.001 145.804C464.841 155.419 483.322 164.255 501.531 173.61C532.514 189.723 561.867 185.305 597.198 177.768C618.125 173.35 639.868 168.153 662.697 162.696C688.788 156.459 715.695 150.221 743.416 144.504C750.211 143.205 757.277 141.646 764.615 140.086C774.671 138.007 785.271 135.668 796.142 133.589C846.421 123.454 913.551 116.957 947.252 143.984C948.883 145.284 950.514 146.583 951.872 147.883C968.451 162.696 977.963 183.226 987.476 203.236C988.563 205.315 989.65 207.654 990.737 209.733C992.096 212.852 993.455 215.71 994.814 218.569C1001.61 233.902 1007.32 250.274 1012.75 268.725C1014.93 276.521 1018.19 284.577 1021.99 292.893C1033.95 317.841 1053.25 339.931 1074.99 353.185C1093.2 364.359 1115.48 370.856 1135.05 376.573C1138.04 377.353 1141.03 378.392 1144.02 379.172C1166.04 385.669 1183.43 389.307 1197.02 390.607V391.906C1183.16 390.867 1165.76 386.968 1143.75 380.471C1140.76 379.692 1137.77 378.652 1134.78 377.873C1114.94 372.155 1092.66 365.659 1074.45 354.484C1052.43 340.97 1032.86 318.881 1020.9 293.413C1016.83 285.097 1013.84 277.041 1011.66 269.245C1006.5 251.053 1000.52 234.681 993.999 219.348C992.911 216.49 991.553 213.631 989.922 210.513C988.835 208.434 987.748 206.095 986.66 204.016C977.148 184.265 967.636 163.735 951.329 148.922C949.97 147.623 948.339 146.323 946.709 145.024C913.28 118.257 846.693 124.754 796.685 134.889C786.086 136.968 775.487 139.307 765.159 141.386C757.821 142.945 750.754 144.504 743.96 145.804C716.238 151.521 689.332 158.018 663.241 163.995C640.411 169.452 618.941 174.65 597.742 179.068C562.138 186.604 532.514 191.022 500.988 174.65C482.778 165.294 464.025 156.459 444.457 146.843C415.92 133.07 386.568 118.777 355.585 102.404C343.354 95.9075 330.309 90.71 316.448 86.8118C267.527 71.9989 200.126 74.3378 165.881 107.862C146.313 126.313 135.714 150.222 125.114 173.35C122.94 178.288 120.494 183.745 118.048 188.683C100.654 225.845 83.2599 251.573 60.9738 272.103C52.2768 280.159 43.0362 287.436 33.2521 294.193C7.97647 311.864 -21.1041 325.378 -51 333.694C-64.5891 337.332 -78.1782 339.931 -91.4954 342.53C-112.694 346.688 -134.437 351.106 -157.81 359.681C-193.142 372.415 -234.452 388.008 -274.676 407.499C-293.701 416.594 -311.095 426.989 -327.945 436.865L-329.576 437.904C-335.283 441.282 -340.719 444.661 -346.154 447.779C-351.862 451.158 -357.569 454.796 -363.548 458.174C-383.388 469.869 -405.131 480.264 -424.156 487.8C-433.668 491.438 -443.724 495.077 -453.236 498.455C-461.118 501.314 -469.543 504.172 -477.425 507.291C-482.589 509.37 -494.819 513.528 -498.895 514.308H-498.624Z" fill="#A8FA79"/>
</g>
<g style="mix-blend-mode:soft-light">
<path d="M-500.254 516.647V515.347C-495.906 515.087 -478.784 509.89 -472.533 507.811C-464.379 505.212 -456.226 502.613 -448.344 500.015C-433.396 495.337 -418.176 490.399 -403.5 484.942C-378.496 476.106 -351.318 462.592 -328.489 447.78C-319.52 442.062 -311.367 436.345 -302.67 430.368C-298.321 427.249 -293.973 424.391 -289.624 421.272C-285.547 418.414 -281.471 415.815 -277.394 412.956C-261.902 402.301 -245.867 391.386 -229.017 381.511C-193.685 360.981 -155.908 344.869 -126.827 333.174C-105.357 324.338 -84.7012 319.401 -64.5894 314.983C-52.9028 312.384 -40.6727 309.525 -28.7143 306.147C-1.5362 298.091 25.3701 285.097 49.2868 268.985C58.2556 262.748 67.2244 255.991 75.3778 248.974C101.197 226.365 118.591 198.818 132.452 174.65C134.354 171.272 136.257 168.153 138.159 164.775C150.389 142.945 162.891 120.596 184.362 103.704C221.596 74.0779 285.736 75.6372 329.493 90.1902C341.995 94.0884 354.225 99.2859 366.183 105.523C397.982 122.675 427.878 137.488 457.23 151.521C473.265 159.317 488.485 166.854 503.705 174.39C532.242 189.203 560.507 185.825 594.208 180.107C624.919 174.91 656.989 167.893 690.962 160.357C706.453 156.978 722.76 153.34 739.067 149.962C745.861 148.402 752.656 147.103 759.994 145.284C770.05 142.945 780.649 140.606 791.249 138.527C863.814 123.194 915.453 125.014 943.99 143.985C945.62 145.024 947.523 146.323 949.154 147.623C968.45 162.176 980.137 183.486 991.28 204.276L992.095 206.095C992.91 207.654 993.726 209.473 994.541 211.033C995.085 212.332 995.628 213.371 996.443 214.671C1004.05 230.263 1010.3 246.116 1016.28 263.787C1018.73 271.324 1021.99 279.38 1026.07 287.696C1038.3 313.424 1056.24 335.253 1076.89 349.546C1094.28 361.761 1115.76 369.557 1134.51 376.314C1136.95 377.353 1139.67 378.133 1142.12 379.172C1162.5 386.709 1179.08 391.386 1192.4 393.465V394.765C1178.81 392.686 1162.23 388.008 1141.57 380.472C1139.13 379.432 1136.68 378.652 1133.96 377.613C1114.94 370.596 1093.47 362.8 1076.08 350.586C1055.42 336.293 1037.21 314.203 1024.98 288.216C1020.9 279.9 1017.64 271.844 1015.2 264.047C1009.49 246.636 1002.97 230.783 995.628 215.191C995.085 213.891 994.541 212.852 993.726 211.552C992.91 209.993 992.095 208.174 991.28 206.615L990.464 204.796C979.321 184.265 967.907 162.696 948.61 148.662C946.979 147.363 945.349 146.323 943.446 145.024C915.181 126.313 864.086 124.494 791.792 139.827C781.193 141.906 770.594 144.244 760.538 146.583C753.2 148.143 746.405 149.702 739.61 151.261C723.304 154.639 707.269 158.278 691.505 161.656C657.533 169.193 625.191 176.209 594.751 181.407C560.779 187.124 532.513 190.502 503.433 175.43C488.485 167.893 473.265 160.357 456.958 152.56C427.878 138.267 397.71 123.714 365.912 106.562C354.225 100.325 341.995 95.1279 329.493 91.2297C286.008 76.9366 222.411 75.1174 185.721 104.743C164.522 121.375 152.02 143.725 140.062 165.554C138.159 168.933 136.257 172.311 134.354 175.43C120.493 199.598 102.828 227.405 77.0085 250.014C68.8551 257.29 59.8863 264.047 50.6457 270.284C26.4572 286.656 -0.720892 299.65 -27.899 307.706C-39.8574 311.345 -52.0875 313.943 -63.7741 316.542C-83.8859 320.96 -104.541 325.638 -126.012 334.733C-155.092 346.428 -193.142 362.54 -228.202 383.07C-245.052 392.946 -261.087 403.861 -276.579 414.256C-280.655 417.114 -284.732 419.713 -288.809 422.572C-293.157 425.69 -297.506 428.549 -301.854 431.667C-310.551 437.644 -318.705 443.362 -327.673 449.079C-350.503 463.632 -377.953 477.145 -402.957 486.241C-417.633 491.439 -433.124 496.376 -448.072 501.314C-455.954 503.913 -464.379 506.511 -472.261 509.11C-478.512 511.189 -495.906 516.387 -500.254 516.907V516.647Z" fill="#A8FA79"/>
</g>
<g style="mix-blend-mode:soft-light">
<path d="M-501.613 518.985V517.686C-496.449 517.686 -474.707 511.449 -467.369 509.37C-460.574 507.291 -453.78 505.472 -447.257 503.393C-424.699 496.896 -403.5 490.399 -382.845 483.382C-352.405 472.987 -320.063 456.615 -294.244 438.684C-283.101 430.887 -272.773 422.831 -262.989 414.775C-259.184 411.657 -255.379 408.798 -251.575 405.68C-245.052 400.482 -238.529 395.285 -232.006 390.087C-217.602 378.652 -202.926 366.698 -187.434 356.043C-157.81 335.513 -124.109 319.401 -98.0182 307.706C-77.9064 298.351 -57.7946 293.153 -38.4981 288.216C-28.4422 285.617 -17.8428 283.018 -7.5151 279.64C17.7605 271.584 42.4927 259.889 65.8658 244.816C74.5628 239.359 82.988 233.122 90.8697 226.885C113.699 208.694 130.55 187.644 149.031 161.656C150.662 159.577 152.292 157.238 153.651 154.899C167.512 135.409 181.645 115.398 204.202 101.105C241.98 76.4168 300.685 80.055 341.995 94.6081C353.954 98.5062 365.369 103.704 376.24 109.421C407.495 126.833 437.662 141.386 466.471 155.419C480.06 161.916 492.834 168.153 505.608 174.65C534.145 189.203 563.225 185.565 590.947 181.926C631.714 176.989 675.471 167.373 721.946 157.498L734.447 154.899C742.057 153.34 749.667 151.521 757.821 149.702C767.061 147.623 776.845 145.544 786.358 143.465C859.739 127.352 910.018 127.352 940.729 143.725C942.36 144.764 944.263 145.804 946.165 146.843C967.092 159.577 979.866 179.068 993.455 201.677C994.542 203.756 995.629 205.575 996.988 207.654L998.347 209.993C1006.5 225.066 1013.57 240.658 1020.09 257.81C1022.81 265.087 1026.34 273.143 1030.42 281.719C1039.39 300.17 1054.88 326.417 1078.79 344.869C1095.64 358.122 1116.03 367.218 1133.97 375.274C1136.14 376.314 1138.31 377.353 1140.49 378.133C1158.43 386.189 1174.73 392.166 1188.05 395.544V396.844C1174.46 393.465 1157.88 387.488 1139.94 379.172C1137.77 378.133 1135.6 377.353 1133.42 376.314C1115.21 368.257 1094.83 358.902 1077.98 345.648C1053.79 326.937 1038.03 300.69 1029.33 281.979C1025.25 273.403 1021.72 265.606 1019 258.07C1012.48 240.918 1005.41 225.326 997.26 210.513L995.901 208.174C994.814 206.095 993.727 204.276 992.64 202.197C979.051 179.847 966.277 160.357 945.621 147.883C943.719 146.843 941.817 145.804 940.186 144.764C910.018 128.652 859.739 128.392 786.901 144.764C777.117 146.843 767.605 148.922 758.364 151.001C750.211 152.82 742.601 154.639 734.991 156.199L722.489 158.797C676.015 168.933 632.258 178.288 591.491 183.226C563.225 186.864 534.417 190.502 505.336 175.689C492.562 169.193 479.789 162.955 466.2 156.459C437.119 142.425 407.223 127.612 375.696 110.461C365.097 104.483 353.682 99.5458 341.724 95.6476C300.685 81.3545 242.524 77.7162 205.018 101.885C182.732 116.178 168.599 136.188 155.01 155.419C153.379 157.758 151.749 159.837 150.118 162.176C131.637 188.163 114.515 209.213 91.6851 227.665C83.5316 234.161 75.1064 240.139 66.4094 245.856C43.0362 260.929 18.0323 272.883 -7.24332 280.939C-17.571 284.317 -28.1704 286.916 -38.2264 289.515C-57.5228 294.453 -77.6346 299.65 -97.4746 309.006C-123.566 320.7 -156.995 336.812 -186.619 357.343C-202.11 367.998 -216.787 379.952 -231.191 391.386C-237.442 396.584 -244.236 401.781 -250.759 406.979C-254.564 410.097 -258.369 412.956 -262.174 416.075C-271.958 423.871 -282.286 432.187 -293.429 439.983C-319.248 458.174 -351.59 474.547 -382.301 484.942C-403.228 492.218 -424.427 498.455 -446.713 504.952C-453.508 507.031 -460.302 508.85 -466.825 510.929C-474.707 513.268 -495.906 519.505 -501.341 519.505L-501.613 518.985Z" fill="#A8FA79"/>
</g>
<g style="mix-blend-mode:soft-light">
<path d="M-502.7 521.325C-502.7 521.325 -503.244 521.325 -503.516 521.325V520.025C-503.516 520.025 -502.972 520.025 -502.7 520.025C-495.906 520.025 -471.717 513.528 -462.477 510.93L-452.964 508.331C-421.166 499.495 -391.27 491.179 -362.461 481.563C-327.13 469.609 -289.08 450.119 -261.359 428.809C-247.77 418.414 -236.355 408.019 -224.396 397.104C-221.407 394.505 -218.689 391.906 -215.699 389.048C-207.274 381.511 -199.121 373.715 -190.967 366.179C-177.65 353.705 -164.061 340.711 -149.928 329.276C-125.196 309.266 -96.6593 293.673 -71.6554 281.199C-52.6308 271.324 -33.3343 265.866 -14.3096 260.409C-5.61262 258.07 3.35619 255.471 12.325 252.353C35.6981 244.557 59.0713 233.642 81.9009 220.128C90.5979 214.931 98.7513 209.733 106.361 204.276C130.006 187.644 148.216 168.413 166.425 148.662L169.958 144.764C185.45 127.872 201.485 110.72 224.586 98.7661C262.364 79.5353 316.992 85.2526 354.769 99.2859C365.64 103.184 376.512 108.122 386.568 113.579C419.181 131.77 450.164 146.843 480.332 161.656C489.573 166.334 498.813 170.752 508.054 175.17C534.416 188.423 560.507 186.344 588.501 184.265C634.432 180.887 683.896 170.492 730.642 160.097C738.796 158.278 746.949 156.459 755.646 154.38C764.343 152.301 773.04 150.222 782.009 148.402C828.484 137.748 895.342 125.533 937.74 143.725C939.642 144.504 941.545 145.544 943.447 146.323C967.092 158.018 982.584 178.808 995.086 197.259C996.716 199.598 998.347 201.937 1000.25 205.315C1009.49 220.388 1017.1 235.721 1024.17 252.093C1027.16 259.11 1030.69 266.646 1035.04 276.002C1048.08 303.808 1063.57 325.378 1080.97 340.451C1097 354.484 1116.57 365.139 1133.69 374.754L1138.86 377.613C1155.16 386.449 1170.93 393.725 1183.97 398.403L1183.43 399.703C1170.38 395.025 1154.62 387.748 1138.04 378.912L1132.88 376.054C1115.76 366.698 1096.19 356.043 1079.88 341.75C1062.49 326.418 1047 304.588 1033.68 276.781C1029.33 267.686 1025.8 259.889 1022.81 252.873C1016.01 236.5 1008.13 221.428 999.162 206.355C997.26 203.236 995.629 200.638 993.998 198.299C981.496 179.847 966.277 159.317 942.903 147.623C941.001 146.583 939.099 145.804 937.196 145.024C895.342 127.093 828.755 139.047 782.281 149.702C773.312 151.781 764.343 153.86 755.918 155.679C747.221 157.758 739.068 159.577 730.914 161.396C684.168 171.791 634.704 182.186 588.501 185.565C560.507 187.644 534.145 189.723 507.51 176.469C498.541 172.051 489.301 167.373 479.788 162.956C449.621 148.402 418.638 133.07 386.024 114.878C375.968 109.421 365.369 104.483 354.497 100.585C316.992 86.5519 262.635 81.0946 225.401 100.066C202.3 111.76 186.537 128.912 171.045 145.544L167.512 149.442C149.303 169.193 131.093 188.423 107.448 205.315C99.8385 210.773 91.685 216.23 82.988 221.428C60.1584 234.941 36.5135 245.856 13.1403 253.912C4.1715 256.771 -4.79726 259.37 -13.4943 261.968C-33.3343 267.686 -51.8154 272.883 -70.5683 282.498C-95.3004 294.973 -124.109 310.565 -148.57 330.316C-162.702 341.75 -176.291 354.744 -189.608 367.218C-197.762 374.754 -205.915 382.551 -214.341 390.087C-217.33 392.686 -220.048 395.545 -223.038 398.143C-234.996 409.058 -246.411 419.713 -260 429.848C-287.993 451.158 -326.043 470.909 -361.646 482.863C-390.455 492.478 -420.351 500.794 -452.149 509.63L-461.661 512.229C-461.661 512.229 -494.003 521.325 -502.157 521.325H-502.7Z" fill="#A8FA79"/>
</g>
<g style="mix-blend-mode:soft-light">
<path d="M-503.516 523.663C-503.516 523.663 -504.875 523.663 -505.146 523.663V522.364C-500.254 523.403 -477.425 517.946 -457.585 512.488C-415.73 501.574 -377.953 491.438 -342.893 480.004C-302.126 466.49 -260 443.881 -230.376 419.193C-215.156 406.719 -202.926 393.985 -189.88 380.212C-187.434 377.613 -184.988 375.014 -182.542 372.415C-173.302 362.8 -164.061 352.665 -155.364 342.79C-142.862 329.016 -130.089 314.463 -116.5 301.729C-95.5724 281.979 -70.025 266.646 -47.739 254.172C-29.5297 243.777 -10.7768 238.06 8.79144 231.823C15.8577 229.744 23.1959 227.405 30.2622 224.806C51.4611 217.269 74.0189 207.394 97.1203 195.44C105.002 191.282 113.155 186.604 121.309 181.926C144.41 167.893 164.25 151.781 183.547 136.188L185.177 134.889C202.299 120.856 220.237 106.303 244.154 97.4668C276.767 85.2526 324.601 88.1113 366.455 104.483C377.055 108.641 386.839 113.319 395.808 118.257C429.237 136.968 461.307 152.56 492.29 167.373C498.269 170.232 503.976 173.091 509.684 175.689C533.872 187.644 558.333 187.124 583.88 186.344H584.695C630.898 185.305 679.819 175.43 725.75 165.034C734.447 162.955 743.144 160.876 752.384 158.797C760.266 156.978 768.419 154.899 776.573 153.08C830.385 140.346 890.992 129.172 933.662 143.465C935.565 143.985 937.739 144.764 939.913 145.544C965.461 155.419 982.583 175.17 996.172 192.841C998.346 195.7 1000.25 198.299 1001.61 200.637C1011.66 215.71 1020.36 230.523 1027.43 246.376C1030.96 253.652 1034.49 261.448 1038.84 270.024C1052.97 299.65 1066.83 320.7 1082.33 335.773C1097.82 351.106 1115.76 362.8 1132.88 374.234L1136.14 376.313C1150.27 385.669 1165.49 394.245 1178.81 400.482L1178.26 401.521C1164.95 395.284 1149.73 386.449 1135.6 377.093L1132.33 375.014C1114.94 363.58 1097 351.885 1081.51 336.293C1066.02 320.96 1052.16 299.91 1037.75 270.024C1033.68 261.448 1029.87 253.652 1026.34 246.376C1019 230.783 1010.58 215.97 1000.52 200.897C998.89 198.558 997.259 196.22 995.085 193.101C981.767 175.43 964.917 155.939 939.641 146.064C937.467 145.284 935.565 144.504 933.39 143.985C890.992 129.691 830.657 140.866 777.116 153.6C768.963 155.419 760.809 157.498 752.928 159.317C743.687 161.656 734.99 163.735 726.293 165.554C680.362 175.949 631.442 185.565 584.967 186.864H584.152C558.333 187.384 533.6 188.163 509.14 175.949C503.433 173.091 497.454 170.232 491.746 167.633C460.763 152.56 428.693 137.228 394.992 118.517C386.023 113.579 376.239 108.901 365.64 104.743C324.329 88.3711 276.767 85.7724 244.426 97.7267C220.509 106.562 202.843 121.115 185.721 134.889L184.09 136.188C164.794 151.781 145.225 168.153 121.852 182.186C113.699 187.124 105.545 191.542 97.6638 195.7C74.2907 207.914 51.7329 217.789 30.534 225.326C23.1959 227.924 15.8577 230.263 8.79144 232.342C-10.7768 238.579 -29.2579 244.297 -47.4672 254.692C-69.7532 267.166 -95.0289 282.238 -115.956 301.989C-129.545 314.723 -142.319 329.016 -154.821 343.049C-163.518 352.925 -172.758 363.06 -181.999 372.675C-184.445 375.274 -186.891 377.873 -189.337 380.471C-201.839 393.465 -214.613 406.719 -229.832 419.453C-259.728 444.141 -301.854 467.01 -342.893 480.524C-378.225 492.218 -415.73 502.093 -457.856 513.008C-469.271 516.127 -495.634 522.883 -504.059 522.883L-503.516 523.663Z" fill="#A8FA79"/>
</g>
<g style="mix-blend-mode:soft-light">
<path d="M-504.603 526.002C-504.603 526.002 -506.505 526.002 -507.049 526.002V524.703C-507.049 524.703 -505.418 524.703 -504.603 524.703C-497.808 524.703 -479.599 521.064 -452.693 514.048C-410.023 503.393 -364.907 491.698 -323.597 478.445C-277.666 463.632 -231.735 437.904 -200.208 409.578C-183.358 394.505 -170.312 378.912 -156.451 362.28C-154.549 360.201 -152.918 357.862 -151.016 355.783C-141.232 344.349 -131.991 332.135 -123.022 320.44C-111.064 304.848 -98.562 288.735 -85.2448 274.182C-66.7636 254.172 -43.1187 238.839 -24.6376 227.405C-6.1565 215.97 13.1399 209.473 33.7953 202.457C38.6873 200.897 43.5794 199.078 48.4715 197.259C72.1164 188.943 95.4896 178.808 113.427 170.752C121.852 167.113 129.734 163.215 137.616 159.577C156.64 150.222 174.306 140.086 191.156 130.471C194.961 128.392 198.495 126.053 202.3 123.974C221.052 113.319 240.349 102.144 264.809 96.1673C296.879 88.371 340.364 93.3087 378.414 109.421C387.926 113.319 397.167 117.737 405.592 122.675C441.467 142.685 475.711 159.057 508.868 174.65L512.13 176.209C534.144 186.864 556.158 187.644 579.531 188.423H582.249C628.452 189.983 679.003 180.367 721.945 170.492C731.729 168.153 741.785 165.814 752.112 163.215C758.907 161.656 765.701 159.837 772.496 158.278C825.493 145.284 885.829 132.29 930.944 143.465C932.847 143.985 935.293 144.504 937.467 145.284C965.732 153.86 984.757 173.091 998.074 188.943C1000.25 191.542 1002.15 194.141 1004.05 196.479C1015.2 211.032 1024.44 226.105 1032.32 241.178V241.958C1036.4 249.494 1040.2 257.03 1044.28 265.087C1054.88 287.436 1067.65 312.904 1085.04 332.135C1099.99 349.027 1117.39 362.54 1133.96 375.534L1135.05 376.314C1148.1 386.449 1161.96 396.064 1175.28 404.12L1174.46 405.16C1161.14 397.104 1147.28 387.488 1134.24 377.353L1133.15 376.314C1116.57 363.32 1099.18 349.806 1084.23 332.914C1066.56 313.424 1053.79 287.956 1043.19 265.347C1039.38 257.29 1035.31 249.754 1031.77 242.218V241.438C1023.89 226.365 1014.38 211.552 1003.51 196.999C1001.61 194.66 999.705 192.062 997.531 189.463C983.398 172.831 965.46 154.639 937.467 146.323C935.293 145.544 932.847 145.024 930.944 144.504C886.372 133.33 826.037 146.323 773.311 159.317C766.517 160.876 759.722 162.696 752.928 164.255C742.6 166.854 732.544 169.192 722.76 171.531C679.547 181.407 629.267 191.282 582.521 189.723H579.803C556.43 188.683 534.144 187.904 511.858 177.249L508.597 175.689C475.439 160.097 441.195 143.725 405.32 123.714C396.895 119.036 387.654 114.619 378.142 110.72C340.364 94.868 297.151 89.6705 265.353 97.4667C241.164 103.184 221.868 114.359 203.115 125.014C199.31 127.093 195.777 129.431 191.972 131.51C175.121 141.386 157.727 151.521 138.431 160.876C130.549 164.775 122.396 168.413 114.242 172.051C96.3049 179.847 72.9317 190.242 49.2868 198.558C44.3947 200.378 39.5027 201.937 34.6106 203.756C14.2271 210.773 -5.34114 217.529 -23.5505 228.704C-42.0316 239.879 -65.6765 255.471 -83.8859 275.222C-97.2031 289.515 -109.433 305.627 -121.663 321.22C-130.632 332.914 -139.873 345.128 -149.657 356.563C-151.559 358.642 -153.462 360.981 -155.092 363.06C-168.138 378.912 -181.999 395.284 -198.849 410.357C-230.376 438.944 -276.579 464.671 -322.51 479.744C-363.82 493.258 -408.936 504.952 -451.606 515.347C-471.174 520.285 -495.09 526.002 -503.787 526.002H-504.603Z" fill="#A8FA79"/>
</g>
<g style="mix-blend-mode:soft-light">
<path d="M-505.146 528.601C-506.505 528.601 -507.864 528.601 -508.408 528.341L-507.864 527.042C-503.244 528.601 -482.86 524.703 -447.529 515.867C-387.193 501.574 -343.165 489.619 -304.3 477.145C-253.749 461.033 -204.013 432.187 -171.399 399.962C-153.19 382.291 -139.872 364.099 -125.74 344.609L-121.391 338.632C-111.879 325.898 -102.91 312.384 -94.2133 299.39C-82.2549 281.459 -69.753 262.748 -56.1639 246.116C-39.5852 226.365 -17.2992 210.513 -2.07945 200.378C17.7606 187.124 39.503 179.328 62.8762 171.012L66.6812 169.712C72.9322 167.373 79.4549 165.035 85.7058 162.696C100.382 157.238 115.33 151.521 130.006 146.323C134.898 144.504 140.062 142.685 144.954 140.866C147.944 139.827 151.205 138.787 154.195 137.488C166.153 133.07 177.84 128.652 189.255 124.234C200.126 120.076 210.453 115.918 221.325 112.28C241.436 105.003 261.548 98.2464 284.921 95.6477C315.904 92.2693 355.041 99.2859 389.829 114.878C398.798 118.777 407.223 122.935 414.833 127.352C450.436 147.103 484.681 163.215 514.033 176.729C534.688 186.344 555.344 188.423 577.086 190.502H579.26C625.463 195.18 675.199 185.565 717.869 175.689C729.827 172.831 742.329 169.712 754.288 166.594C758.908 165.554 763.256 164.255 767.877 163.215C814.351 151.261 878.22 134.889 927.412 143.465C929.586 143.725 932.032 144.244 934.207 144.764C965.733 151.521 986.389 170.752 999.434 184.525C1001.61 186.864 1003.78 189.203 1005.96 191.802C1017.92 205.835 1028.24 220.648 1036.4 235.461C1041.29 244.297 1045.37 252.093 1048.9 259.11L1051.89 265.347C1062.22 286.916 1072.54 309.266 1087.22 327.457C1100.81 345.128 1116.84 360.201 1133.15 375.274C1144.84 385.929 1157.88 396.844 1170.93 406.719L1170.11 407.759C1156.8 397.883 1143.75 386.968 1132.06 376.314C1115.48 361.241 1099.72 346.168 1085.86 328.496C1071.18 310.305 1060.86 287.696 1050.53 266.126L1047.54 259.889C1044.01 252.613 1039.93 244.816 1035.04 236.24C1026.88 221.428 1016.56 206.875 1004.6 192.841C1002.7 190.502 1000.52 188.163 998.347 185.825C977.963 163.995 957.58 151.521 933.935 146.323C931.761 145.804 929.586 145.284 927.412 145.024C878.763 136.708 814.895 152.82 768.42 164.775C763.8 165.814 759.451 167.113 754.831 168.153C742.873 171.272 730.371 174.39 718.412 177.249C675.471 187.384 625.463 196.999 579.26 192.321H577.086C555.344 189.983 534.688 187.904 513.761 178.288C484.409 164.775 449.893 148.402 414.289 128.652C406.679 124.494 398.254 120.336 389.285 116.178C354.769 100.845 315.904 93.5686 284.921 97.2069C261.548 99.8057 241.708 106.562 221.596 113.579C210.997 117.477 200.669 121.375 189.798 125.533C178.655 129.951 166.968 134.369 154.738 138.787C151.749 139.827 148.487 140.866 145.498 142.165C140.606 143.985 135.442 145.804 130.55 147.623C115.874 152.82 100.926 158.538 86.2494 163.995C79.7267 166.334 73.4757 168.673 67.2247 171.012L63.4198 172.311C40.3184 180.627 18.5759 188.423 -1.26409 201.677C-16.4838 211.812 -38.7699 227.405 -55.0768 247.155C-68.6659 263.527 -81.1678 282.238 -93.1261 300.17C-101.823 313.164 -110.792 326.677 -120.304 339.411L-124.653 345.388C-138.242 363.84 -152.103 383.07 -170.584 400.742C-203.197 432.967 -253.205 461.813 -304.028 478.185C-342.893 490.659 -386.922 502.613 -447.257 516.906C-477.968 524.443 -496.993 528.341 -505.146 528.341V528.601Z" fill="#A8FA79"/>
</g>
<g style="mix-blend-mode:soft-light">
<path d="M-506.233 530.94C-508.136 530.94 -509.495 530.94 -510.31 530.42L-509.767 529.121C-505.146 530.94 -482.86 527.041 -443.996 517.686H-442.908C-379.584 502.873 -329.848 489.619 -286.091 475.586C-231.463 458.174 -177.107 425.69 -143.949 390.347C-124.653 370.336 -110.792 348.247 -97.203 327.197L-93.6699 321.48C-84.9729 308.226 -76.5476 294.193 -68.666 280.679C-56.1641 259.629 -43.1185 237.8 -28.4424 218.309C-16.7558 203.236 -0.720725 188.423 20.2064 173.61C38.9593 160.357 59.6147 151.261 85.1621 141.905C108.264 133.33 128.647 126.573 147.4 121.635C155.825 119.296 164.25 117.217 171.86 115.398C192.244 110.46 216.432 105.003 240.893 100.845C257.471 98.2463 277.039 95.3877 298.51 95.3877C300.684 95.3877 302.587 95.3877 304.761 95.3877C334.929 96.4272 368.901 105.003 400.7 120.076C409.125 123.974 416.735 127.872 423.529 131.77C457.23 150.221 489.029 165.034 515.663 176.989C535.231 185.824 554.528 188.943 574.912 192.581H575.727C620.299 200.118 668.404 191.282 713.52 180.627C726.837 177.508 740.698 173.87 754.015 170.492L769.235 166.594C818.971 153.34 875.501 138.527 923.878 143.465C926.053 143.465 928.499 143.984 931.216 144.244C957.307 148.142 979.322 159.577 1001.06 180.367C1003.78 182.966 1005.96 185.305 1007.86 187.384C1020.9 201.157 1032.05 215.45 1040.74 230.003C1045.64 238.06 1049.98 246.116 1053.79 253.912C1056.51 259.369 1058.95 265.347 1061.67 271.064C1069.82 289.255 1078.25 307.966 1089.12 323.819C1102.17 343.049 1117.11 359.941 1130.98 375.014C1141.57 386.709 1153.53 398.403 1166.58 410.097L1165.49 411.137C1152.72 399.442 1140.76 387.748 1129.89 376.054C1115.76 360.721 1101.08 343.829 1087.76 324.598C1076.89 308.746 1068.19 289.775 1060.04 271.843C1057.59 266.126 1054.88 260.409 1052.16 254.692C1048.63 247.155 1044.28 239.099 1039.39 231.043C1030.69 216.49 1019.82 202.197 1006.77 188.683C1004.87 186.604 1002.69 184.265 999.977 181.666C978.506 161.136 956.764 149.702 930.945 146.063C928.227 145.804 925.781 145.284 923.607 145.284C875.773 140.346 819.243 155.159 769.507 168.413L754.287 172.311C740.97 175.689 727.109 179.328 713.792 182.706C668.676 193.361 620.571 202.457 575.727 194.66H574.912C554.256 191.022 534.96 187.903 515.12 178.808C488.485 166.854 456.415 152.041 422.714 133.589C415.92 129.691 408.31 126.053 399.884 121.895C368.086 107.082 334.385 98.2463 304.489 97.4667C280.573 96.9469 259.102 99.8055 240.893 102.924C216.161 106.822 192.244 112.539 171.86 117.477C164.25 119.296 155.825 121.375 147.4 123.454C128.647 128.392 108.264 135.149 85.1621 143.725C59.8865 153.08 39.2311 162.176 20.4782 175.429C-0.448938 190.242 -16.484 204.795 -27.8988 219.868C-42.575 239.099 -55.6205 260.929 -68.1224 281.979C-76.0041 295.492 -84.4293 309.525 -93.1263 322.779L-96.6594 328.496C-110.248 349.806 -124.381 371.636 -143.678 391.906C-177.107 427.249 -231.735 459.994 -286.363 477.405C-330.119 491.438 -379.855 504.692 -443.18 519.245H-444.267C-466.01 524.703 -494.819 531.459 -506.505 531.459L-506.233 530.94Z" fill="#A8FA79"/>
</g>
<g style="mix-blend-mode:soft-light">
<path d="M-507.049 533.538C-509.223 533.538 -510.854 533.538 -511.941 533.018L-511.397 531.719C-503.516 534.838 -455.41 523.663 -439.647 519.765H-438.016C-371.43 504.692 -315.987 490.139 -267.882 474.806C-208.905 456.095 -151.288 420.492 -117.315 381.511C-97.4749 359.422 -83.8858 335.253 -70.5686 311.864L-66.7636 305.107C-59.4255 292.633 -52.3592 279.64 -45.8365 266.906C-31.9757 241.438 -17.8431 214.931 -0.449079 191.542C10.9657 176.209 25.9137 161.396 43.8513 147.883C60.4299 135.149 80.5417 124.494 105.274 115.138C125.929 107.342 146.584 101.625 166.696 98.2463C175.665 96.6871 184.634 95.3877 191.157 94.6081C215.073 91.7495 238.718 90.71 261.82 90.9699C284.921 91.4896 305.576 93.3087 324.873 96.947C352.594 101.885 382.762 112.28 411.571 126.833C418.909 130.471 425.704 134.109 432.498 137.488C459.404 151.781 487.398 165.294 517.837 178.288C536.59 186.604 555.887 191.282 573.009 195.7C613.776 205.835 656.989 199.338 709.715 186.604C724.391 182.966 739.611 178.808 754.558 174.91L758.907 173.61C764.071 172.311 769.235 170.752 774.67 169.192C818.155 157.238 866.804 143.725 911.648 143.725C914.638 143.725 917.627 143.725 920.617 143.725C922.247 143.725 923.878 143.725 925.509 143.984H928.227C955.948 146.323 980.408 156.978 1002.69 176.209C1004.87 178.028 1007.04 180.107 1010.03 182.966C1024.44 196.739 1036.12 210.773 1045.36 224.806C1050.26 232.342 1054.88 240.398 1058.95 248.714C1063.03 257.03 1066.56 265.866 1070.1 274.442C1076.62 289.775 1083.14 305.627 1091.57 319.661C1101.62 336.812 1113.58 354.224 1129.34 374.494C1139.67 387.748 1150.82 400.742 1162.5 413.216L1161.41 413.995C1149.73 401.521 1138.31 388.268 1128.26 375.014C1112.49 354.744 1100.54 337.332 1090.48 319.92C1082.05 305.887 1075.53 290.035 1069.01 274.702C1065.48 266.126 1061.67 257.29 1057.87 248.974C1054.06 240.918 1049.44 232.862 1044.55 225.326C1035.58 211.292 1023.62 197.519 1009.49 183.745C1006.5 180.887 1004.33 179.068 1002.15 177.249C980.137 158.018 955.948 147.623 928.498 145.284H925.781C924.15 145.284 922.519 145.024 920.889 144.764C917.899 144.764 915.181 144.764 912.192 144.764C867.619 144.764 818.971 158.278 775.757 170.232C770.594 171.791 765.158 173.091 759.994 174.65L755.646 175.949C740.969 179.847 725.75 184.005 710.802 187.644C658.076 200.378 614.319 206.874 573.552 196.739C556.43 192.321 537.134 187.644 518.109 179.328C487.67 166.074 459.676 152.82 432.498 138.527C425.975 134.889 418.909 131.251 411.571 127.872C382.762 113.579 352.866 103.184 325.145 98.2463C305.848 94.868 285.193 92.789 262.091 92.2692C238.99 92.0093 215.345 93.0489 191.7 95.9075C184.906 96.6871 176.209 97.9865 167.24 99.5458C147.128 102.924 126.473 108.641 106.089 116.438C81.357 125.793 61.2452 136.448 44.9383 149.182C27.2726 162.696 12.3247 177.249 0.909857 192.581C-16.2123 215.71 -30.6167 242.218 -44.2058 267.685C-51.0003 280.159 -58.0666 293.153 -65.4047 305.887L-69.2096 312.644C-82.5269 336.033 -96.3877 360.461 -116.228 382.55C-150.472 421.792 -208.362 457.655 -267.61 476.366C-315.715 491.698 -371.43 506.251 -437.745 521.064H-439.375C-463.02 527.041 -493.732 534.058 -507.049 534.058V533.538Z" fill="#A8FA79"/>
</g>
<g style="mix-blend-mode:soft-light">
<path d="M-507.864 535.877C-510.582 535.877 -512.756 535.877 -513.843 535.098L-513.3 534.058C-505.146 537.956 -452.964 525.742 -435.842 521.844L-433.668 521.324C-363.548 506.251 -303.485 490.659 -250.487 473.767C-187.434 454.016 -126.555 415.295 -91.7672 372.675C-71.6554 348.767 -58.3381 322.519 -45.2926 297.051C-43.9337 294.193 -42.3031 291.334 -40.9441 288.475C-35.5085 278.34 -30.3447 267.945 -25.1808 257.81C-9.41754 226.365 7.16115 193.621 28.3601 165.034C65.5941 112.54 125.386 78.7557 187.896 74.3378C196.049 73.818 203.931 73.2982 211.812 73.2982C299.869 73.2982 380.317 109.421 422.714 132.55C476.255 160.876 523.274 181.666 570.835 197.779C621.658 215.19 679.82 199.338 741.242 182.446C745.862 181.147 750.754 179.847 755.375 178.548C763.256 176.469 770.866 174.13 779.291 171.531C823.864 158.538 874.143 143.725 921.161 143.725C922.52 143.725 924.151 143.725 925.51 143.725C958.123 144.504 986.66 155.679 1012.48 178.288C1035.58 198.039 1053.52 220.388 1064.39 243.257C1069.55 254.172 1073.9 265.606 1077.98 276.781C1082.87 289.775 1088.03 303.288 1094.29 315.503C1113.04 352.925 1133.42 384.889 1158.7 416.594L1157.61 417.374C1132.34 385.929 1111.68 353.704 1092.93 316.282C1086.68 304.068 1081.51 290.554 1076.62 277.561C1072.54 266.386 1068.19 254.951 1063.03 244.037C1052.43 221.427 1034.49 199.078 1011.66 179.587C985.845 157.238 957.852 145.804 925.51 145.284C924.151 145.284 922.52 145.284 921.161 145.284C874.143 145.284 823.864 160.097 779.563 173.091C771.41 175.429 763.528 177.768 755.646 180.107C751.026 181.407 746.134 182.706 741.514 184.005C679.819 200.897 621.387 216.75 570.292 199.078C522.73 182.966 475.712 162.176 421.899 133.849C379.773 110.98 299.326 74.8575 211.812 74.8575C203.931 74.8575 196.049 75.1174 187.896 75.897C125.658 80.3149 66.4094 113.839 29.4472 166.074C8.24825 194.66 -8.0586 227.145 -23.8219 258.59C-28.9857 268.725 -34.1496 279.12 -39.5852 289.515C-40.9441 292.374 -42.5748 295.232 -43.9337 298.091C-56.9792 323.559 -70.5683 349.806 -90.6801 373.975C-125.74 416.854 -186.619 455.835 -249.944 475.586C-302.941 492.478 -363.005 508.071 -433.396 523.143L-435.57 523.663C-460.846 529.38 -493.46 536.657 -507.864 536.657V535.877Z" fill="#A8FA79"/>
</g>
<g style="mix-blend-mode:soft-light">
<path d="M-496.993 535.098C-496.993 535.098 -497.808 535.098 -498.08 535.098V533.798C-498.08 533.798 -497.265 533.798 -496.993 533.798C-480.143 533.798 -424.427 519.765 -404.316 512.229C-371.974 500.534 -340.447 490.659 -309.736 481.304C-277.937 471.428 -248.041 462.333 -220.048 451.678C-162.974 430.108 -109.705 393.206 -77.6346 352.925C-59.697 330.835 -46.3797 307.187 -33.606 284.058C-30.8882 279.38 -28.1704 274.442 -25.4526 269.764C-3.4383 231.303 21.5656 190.762 56.3536 154.12C98.4797 108.122 158.543 79.5353 216.704 77.976C219.966 77.976 223.227 77.976 226.489 77.976C289.542 77.976 358.846 97.7266 432.499 136.968C478.43 160.876 525.176 180.367 575.184 196.739C625.192 213.112 682.537 197.259 743.145 180.627L750.483 178.548C758.908 176.209 767.333 173.61 776.03 171.012C821.146 157.498 867.892 143.465 913.823 143.465C946.437 143.465 975.246 153.86 1002.15 174.91C1027.16 194.141 1046.45 216.75 1057.6 239.879C1062.76 250.794 1067.38 262.748 1072 274.182C1077.44 287.956 1082.87 301.989 1089.39 314.723C1109.51 354.484 1130.43 386.449 1155.44 416.075L1154.35 416.854C1129.35 387.228 1108.42 355.004 1088.31 315.243C1081.78 302.509 1076.08 288.216 1070.91 274.702C1066.56 263.268 1061.94 251.573 1056.51 240.398C1045.37 217.529 1026.34 195.18 1001.61 175.949C975.246 155.159 946.437 144.764 914.367 144.764C868.436 144.764 821.961 158.797 776.846 172.311C767.877 174.91 759.723 177.509 751.298 179.847L743.96 181.926C683.081 198.558 625.735 214.411 575.184 198.039C525.176 181.926 478.43 162.176 432.499 138.267C359.118 99.2858 290.085 79.5353 227.304 79.5353C224.043 79.5353 220.781 79.5353 217.52 79.5353C159.63 81.0945 99.8386 109.421 57.9843 155.159C23.4681 191.542 -1.53579 232.082 -23.5501 270.544C-26.2679 275.222 -28.9857 280.159 -31.7035 284.837C-44.4772 307.706 -57.7945 331.615 -75.7321 353.704C-107.802 394.245 -161.343 431.147 -218.689 452.717C-246.954 463.372 -276.85 472.468 -308.649 482.343C-339.36 491.699 -370.886 501.574 -403.228 513.268C-421.438 520.285 -478.24 534.838 -496.178 534.838L-496.993 535.098Z" fill="#A8FA79"/>
</g>
<g style="mix-blend-mode:soft-light">
<path d="M-483.132 534.838V533.538C-461.39 530.939 -402.141 513.008 -376.322 502.873C-364.092 498.195 -351.862 493.777 -339.903 489.359C-286.906 469.869 -237.17 451.677 -192.326 429.068C-135.796 400.482 -91.7673 367.218 -65.1327 332.914C-49.6412 313.423 -37.1393 292.893 -25.1809 273.403C-20.5607 266.126 -15.9404 258.33 -11.3201 251.053C13.9555 211.032 43.5797 178.288 84.6186 144.764C106.633 126.053 165.609 83.1735 241.165 83.1735C242.252 83.1735 243.339 83.1735 244.426 83.1735C320.796 84.213 389.829 114.878 441.467 141.646C492.562 167.633 541.754 184.265 578.717 195.7C628.453 211.032 684.711 195.18 744.775 178.548C753.744 175.949 762.712 173.091 772.225 170.232C814.351 157.238 858.108 143.984 901.321 143.205C902.408 143.205 903.767 143.205 904.854 143.205C935.837 143.205 964.102 152.301 990.465 171.271C1017.64 189.982 1038.03 212.332 1049.44 236.24C1054.88 247.415 1059.77 259.629 1064.66 271.583C1070.37 285.617 1076.35 300.43 1083.41 313.423C1105.16 355.523 1126.08 386.968 1150.82 415.035L1149.73 415.815C1124.72 387.748 1103.8 356.303 1082.06 313.943C1075.26 300.69 1069.28 286.137 1063.3 271.843C1058.41 260.149 1053.52 247.935 1048.08 236.76C1036.67 213.371 1016.28 191.022 989.378 172.311C963.015 153.6 935.293 144.504 904.31 144.504C903.223 144.504 902.136 144.504 900.777 144.504C857.564 145.284 814.079 158.538 771.953 171.531C762.441 174.39 753.472 177.249 744.503 179.847C684.44 196.479 627.637 212.332 577.63 196.999C540.396 185.565 491.203 168.933 440.108 142.685C388.47 115.918 319.709 85.2525 243.611 84.213C242.523 84.213 241.436 84.213 240.349 84.213C165.338 84.213 106.633 126.833 84.6186 145.544C43.8515 178.808 14.2273 211.552 -11.0483 251.313C-15.6686 258.59 -20.2889 266.386 -24.9092 273.662C-36.8675 293.413 -49.3694 313.943 -64.861 333.434C-91.7673 367.997 -136.068 401.261 -192.598 429.848C-237.442 452.457 -287.45 470.908 -340.447 490.139C-352.405 494.557 -364.636 498.975 -376.866 503.653C-402.685 513.528 -462.205 531.719 -484.219 534.318L-483.132 534.838Z" fill="#A8FA79"/>
</g>
<g style="mix-blend-mode:soft-light">
<path d="M-468.184 534.838V533.538C-440.191 527.561 -378.768 507.031 -349.144 493.517C-340.175 489.619 -331.207 485.721 -322.238 481.823C-265.979 457.395 -212.982 434.526 -167.051 406.199C-113.782 373.195 -76.8195 342.789 -53.9899 313.164C-42.0316 297.571 -31.1603 281.719 -20.8327 266.386C-12.951 254.692 -5.61291 243.517 2.54052 232.602C37.6003 184.525 70.7576 155.939 113.971 137.228C121.037 134.109 128.103 130.731 135.713 127.093C173.219 109.421 215.345 89.4106 262.091 89.4106C265.353 89.4106 268.342 89.4105 271.604 89.6704C338.734 93.5685 399.069 121.375 450.707 147.103C496.095 169.452 540.939 183.226 583.065 195.44C628.996 208.694 681.178 195.96 739.611 179.328C749.123 176.469 758.635 173.61 768.419 170.492C807.828 158.278 848.595 145.804 889.09 144.244C921.16 142.945 951.6 151.261 979.321 168.933C1008.4 186.864 1030.14 209.213 1042.37 233.382C1048.08 244.816 1053.52 257.29 1058.41 269.504C1064.66 284.317 1070.91 299.39 1078.25 312.904C1095.64 345.908 1116.03 381.251 1147.28 414.775L1146.19 415.555C1114.94 382.031 1094.56 346.428 1077.16 313.424C1069.82 299.91 1063.3 284.577 1057.32 269.764C1052.16 257.81 1046.99 245.076 1041.29 233.642C1029.33 209.733 1007.59 187.384 978.778 169.712C950.784 152.041 921.704 143.984 889.362 145.284C848.867 146.843 808.371 159.317 768.963 171.531C758.907 174.65 749.395 177.508 739.882 180.367C681.178 196.999 628.724 209.733 582.521 196.479C540.395 184.265 495.551 170.492 450.164 148.142C398.797 122.415 338.734 94.8679 271.604 90.7099C268.342 90.7099 265.353 90.7099 262.363 90.7099C215.889 90.7099 174.034 110.46 136.8 128.132C129.19 131.77 122.124 135.149 115.058 138.267C72.1164 156.978 38.9592 185.565 4.17119 233.382C-3.98224 244.297 -11.3203 255.471 -19.2019 267.166C-29.5296 282.498 -40.1291 298.351 -52.3593 313.943C-75.4606 343.829 -112.423 374.494 -165.964 407.239C-212.166 435.565 -265.164 458.694 -321.422 483.122C-330.391 487.021 -339.36 490.919 -348.329 494.817C-377.953 508.33 -439.647 528.861 -468.184 534.838Z" fill="#A8FA79"/>
</g>
<g style="mix-blend-mode:soft-light">
<path d="M-453.236 534.578V533.279C-418.176 523.663 -355.667 500.794 -322.51 483.642L-314.084 479.484C-251.575 448.039 -192.598 418.673 -143.949 382.291C-108.618 356.043 -68.9379 325.118 -43.6622 292.374C-35.7806 282.238 -28.4425 271.843 -21.1044 261.968C-8.60249 244.816 3.08412 228.964 16.4014 213.371C52.5483 170.492 93.3154 143.984 144.682 129.951C156.64 126.573 168.871 122.415 181.644 117.997C216.976 105.783 256.928 92.0093 298.51 96.4272C356.399 102.664 407.222 126.833 451.794 148.142L459.948 152.041C501.802 171.791 544.2 182.966 585.239 193.881L587.413 194.4C632.529 206.355 684.983 193.361 734.718 179.328C744.231 176.469 753.743 173.61 764.071 170.232C801.033 158.538 839.082 146.583 877.403 144.244C909.202 142.165 939.641 149.442 968.178 165.554C989.921 177.508 1019 198.299 1035.04 229.484C1041.02 241.438 1046.72 254.432 1052.43 266.906C1058.95 281.979 1065.75 297.311 1073.36 311.345C1094.56 350.846 1114.4 383.33 1143.75 413.476L1142.66 414.255C1113.31 383.85 1093.2 351.365 1072 311.864C1064.39 297.831 1057.59 282.498 1051.07 267.426C1045.64 254.951 1039.93 241.958 1033.95 230.003C1017.91 199.078 989.105 178.288 967.363 166.594C942.087 152.301 915.181 145.024 887.188 145.024C883.926 145.024 880.665 145.024 877.403 145.284C839.082 147.623 801.033 159.577 764.343 171.012C754.287 174.13 744.503 177.249 734.99 180.107C684.983 194.4 632.257 207.134 586.87 195.18L584.695 194.66C543.656 183.745 501.259 172.311 459.133 152.56L450.979 148.662C406.407 127.352 355.856 103.444 298.238 97.2068C256.928 92.7889 218.878 106.043 182.188 118.777C169.142 123.194 157.184 127.352 144.954 130.731C94.1307 144.764 53.6354 171.012 17.4885 213.631C4.443 228.964 -7.51534 245.076 -19.7455 262.228C-27.0836 272.103 -34.4217 282.498 -42.3033 292.634C-67.5789 325.638 -107.531 356.303 -142.862 382.81C-191.783 419.193 -250.759 448.819 -313.269 480.264L-321.694 484.422C-354.851 501.574 -417.633 524.443 -453.236 534.058V534.578Z" fill="#A8FA79"/>
</g>
<g style="mix-blend-mode:soft-light">
<path d="M-438.832 534.578L-439.375 533.279C-395.075 518.985 -332.022 494.037 -297.234 473.767C-230.919 436.345 -172.758 394.245 -123.566 357.862C-90.6804 333.954 -59.9691 304.068 -34.9653 271.584L-30.345 265.606C-10.505 240.139 7.97612 216.23 29.9904 194.66C63.6912 160.876 107.176 146.843 153.379 132.03C160.445 129.691 168.055 127.352 175.393 124.754C213.443 111.76 269.973 95.6476 324.057 104.483C369.717 111.76 410.484 130.471 446.359 147.103C453.969 150.741 461.307 154.12 468.645 157.238C504.248 173.091 541.21 181.667 576.814 190.242C581.706 191.282 586.598 192.581 591.49 193.621C633.888 203.756 682.808 192.841 729.283 179.588C739.067 176.729 749.123 173.61 759.45 170.232C793.695 159.317 829.298 148.143 864.901 145.284C896.7 142.945 927.683 148.922 956.492 163.475C979.593 174.91 1010.85 194.92 1027.7 226.885C1034.22 239.359 1040.47 252.872 1046.45 266.126C1053.25 281.199 1060.31 297.051 1068.19 311.085C1087.49 346.428 1107.33 380.991 1140.22 413.476L1139.13 414.515C1106.24 382.031 1086.13 347.467 1067.11 311.864C1059.22 297.831 1052.16 281.979 1045.36 266.646C1039.38 253.392 1033.41 239.879 1026.61 227.665C1010.03 196.22 979.049 176.209 956.22 165.034C927.683 150.741 897.243 144.504 865.445 147.103C829.842 149.962 794.51 161.136 760.266 172.051C749.666 175.429 739.882 178.548 730.098 181.407C683.352 194.66 634.431 205.575 591.49 195.44C586.598 194.141 581.706 193.101 576.814 192.062C541.21 183.486 504.248 174.91 468.373 159.057C461.035 155.939 453.697 152.56 446.087 148.922C410.212 132.55 369.445 113.579 324.057 106.562C270.245 97.7266 213.986 113.839 176.209 126.833C168.87 129.172 161.261 131.77 154.194 134.109C108.263 148.922 64.7783 162.696 31.3493 196.22C9.60678 217.789 -9.14608 241.698 -28.7143 267.166L-33.3346 273.143C-58.3384 305.627 -89.0497 335.773 -122.207 359.681C-171.399 396.324 -229.56 438.424 -295.875 475.846C-330.663 496.116 -393.988 521.064 -438.288 535.357L-438.832 534.578Z" fill="#A8FA79"/>
</g>
<g style="mix-blend-mode:soft-light">
<path d="M-424.427 534.578L-424.971 533.279C-376.05 515.867 -310.008 488.32 -272.502 463.632C-206.459 421.792 -150.472 372.415 -105.628 332.914C-78.9937 309.785 -52.6309 281.979 -27.3553 250.274C-6.42813 224.026 16.6733 199.858 43.3078 175.949C78.0958 144.504 123.483 136.448 171.317 127.872C182.731 125.793 194.69 123.714 206.648 121.375C252.851 111.5 302.043 103.704 348.518 113.839C383.578 121.375 414.561 135.409 444.185 148.662C455.6 153.86 466.199 158.538 477.07 162.955C508.597 175.689 541.482 182.446 573.553 188.943C580.891 190.502 588.229 191.802 595.567 193.361C638.508 202.457 686.614 191.022 724.119 180.367C734.447 177.249 744.775 173.87 755.918 170.492C787.444 160.357 819.786 149.702 852.944 146.583C885.014 143.465 915.725 148.402 944.806 161.396C969.538 171.791 1002.42 191.282 1020.36 223.766C1027.43 236.5 1033.95 250.794 1040.47 264.567C1047.54 279.9 1055.15 295.752 1063.03 310.045C1083.69 347.727 1103.53 381.251 1136.41 412.436L1135.32 413.476C1102.17 382.031 1082.33 348.247 1061.67 310.565C1053.52 296.272 1046.18 280.419 1038.84 264.827C1032.32 251.053 1025.8 236.76 1018.73 224.026C1001.06 191.802 968.451 172.571 943.99 162.176C915.181 149.182 884.47 144.244 852.672 147.363C819.786 150.481 787.444 161.136 755.918 171.271C744.775 174.91 734.447 178.288 724.119 181.147C686.614 192.062 637.965 203.236 595.023 194.141C587.685 192.581 580.347 191.022 573.009 189.723C541.211 183.226 508.053 176.729 476.527 163.735C465.656 159.317 455.056 154.38 443.641 149.442C414.017 136.188 383.306 122.155 348.246 114.619C302.043 104.743 253.123 112.28 207.192 122.155C195.233 124.494 183.547 126.833 171.86 128.652C124.299 137.228 79.1829 145.024 44.395 176.209C17.7604 200.118 -5.34098 224.286 -26.2681 250.534C-51.5438 282.238 -77.9065 310.045 -104.813 333.434C-149.657 373.195 -205.644 422.571 -271.686 464.411C-309.464 489.1 -375.235 516.646 -424.427 534.058V534.578Z" fill="#A8FA79"/>
</g>
<g style="mix-blend-mode:soft-light">
<path d="M-410.295 534.578L-410.838 533.279C-359.744 513.528 -289.896 483.382 -248.857 453.237C-184.988 408.278 -136.883 356.823 -90.4084 306.927C-65.1327 280.679 -41.216 252.613 -20.8324 228.444C4.44324 198.558 29.9907 175.17 57.4406 156.978C100.11 128.652 150.118 125.273 203.115 121.375C214.53 120.596 226.488 119.816 238.447 118.517C280.301 114.359 328.678 110.98 372.163 123.194C397.711 130.211 420.54 140.346 442.826 150.221C457.502 156.718 471.363 162.955 485.496 168.153C521.371 181.147 559.149 186.604 595.839 192.062L599.644 192.581C634.16 197.519 674.384 193.361 718.684 180.627C729.284 177.508 740.155 174.13 751.298 170.232C780.107 160.876 810.003 151.261 840.17 147.623C871.697 143.985 902.952 147.623 932.304 159.317C958.395 168.933 993.455 187.644 1012.21 220.908C1019.82 234.161 1026.88 249.234 1033.95 263.527C1041.29 279.12 1049.17 294.972 1057.32 309.525C1076.62 344.089 1096.73 379.692 1132.34 412.176L1131.52 413.216C1095.64 380.731 1075.8 344.869 1056.24 310.305C1047.81 295.752 1040.2 279.9 1032.59 264.307C1025.8 250.014 1018.46 235.201 1011.12 221.687C992.64 188.683 957.852 170.492 932.032 160.876C902.68 149.702 871.969 145.804 840.442 149.442C810.274 152.82 780.65 162.696 751.841 172.051C740.427 175.689 729.827 179.328 718.956 182.446C674.112 195.44 633.888 199.338 599.1 194.4L595.296 193.881C558.605 188.423 520.828 182.966 484.681 169.972C470.548 164.775 456.687 158.797 441.739 152.041C419.725 142.165 396.895 132.03 371.348 125.014C328.135 113.059 280.029 116.438 238.175 120.596C226.489 121.635 214.53 122.675 202.844 123.454C150.118 127.093 100.11 130.731 57.7124 158.797C29.9907 176.989 5.25861 199.858 -20.017 230.003C-40.4006 254.172 -64.3174 282.238 -89.593 308.486C-136.068 358.382 -184.445 409.838 -248.313 455.056C-289.624 485.202 -359.472 515.347 -410.838 535.098L-410.295 534.578Z" fill="#A8FA79"/>
</g>
<g style="mix-blend-mode:soft-light">
<path d="M-396.434 534.578L-396.977 533.279C-315.171 499.235 -259.456 469.869 -226.027 442.842C-163.789 394.245 -120.576 337.332 -78.4499 282.239L-77.3628 280.679C-54.2614 251.053 -33.8778 226.885 -15.1249 206.615C11.2378 177.768 39.7748 155.679 71.845 138.527C121.581 112.28 179.47 114.619 235.457 116.957C246.872 117.477 258.83 117.997 270.517 117.997C311.828 118.777 355.585 120.596 394.993 134.109C412.115 140.086 427.878 147.103 443.098 153.86C460.492 161.656 476.799 168.933 493.921 174.13C519.74 181.926 546.918 185.305 573.281 188.423C583.337 189.723 593.665 190.762 603.993 192.321C635.791 196.739 672.753 193.101 713.792 181.667C724.663 178.548 735.263 174.91 746.678 171.272C773.04 162.696 800.49 153.6 828.212 149.702C859.467 145.544 891.537 148.402 920.618 158.018C948.339 166.854 985.301 184.525 1004.87 218.309C1013.02 232.342 1020.9 248.195 1028.51 263.527C1036.12 278.86 1044.01 294.713 1052.43 309.006C1073.36 345.648 1092.93 380.212 1128.8 411.657L1127.71 412.696C1091.57 380.991 1071.73 346.428 1051.07 309.785C1042.65 295.492 1034.77 279.64 1027.16 264.307C1019.55 248.974 1011.66 233.382 1003.51 219.349C983.943 185.825 947.252 168.413 919.802 159.577C890.993 149.962 859.195 147.103 828.212 151.261C800.49 154.899 773.312 163.995 746.949 172.571C735.535 176.469 724.663 179.847 713.792 182.966C672.753 194.66 635.519 198.299 603.449 193.881C593.393 192.321 582.794 191.282 572.738 189.983C546.375 186.864 518.925 183.746 493.106 175.689C475.984 170.492 459.405 163.215 442.011 155.419C426.791 148.662 411.028 141.646 394.177 135.668C355.041 122.155 311.556 120.336 270.245 119.556C258.559 119.556 246.6 118.777 235.185 118.517C179.47 116.178 121.853 113.839 72.3886 140.086C40.3184 157.238 12.0531 179.328 -14.3096 207.914C-33.0625 228.184 -53.4461 252.353 -76.5475 281.719L-77.6346 283.278C-119.489 338.372 -162.974 395.544 -225.212 444.141C-258.641 471.168 -314.628 500.794 -396.434 534.838V534.578Z" fill="#A8FA79"/>
</g>
<g style="mix-blend-mode:soft-light">
<path d="M-382.845 534.578L-383.388 533.279C-322.781 506.771 -247.77 471.168 -204.013 431.927C-142.59 378.652 -104.541 315.762 -67.5788 254.692L-66.7635 253.132C-54.8051 233.902 -39.8572 217.269 -25.4528 201.157C-20.5607 195.44 -15.3968 189.723 -10.233 184.005C10.9659 158.538 41.1336 138.787 87.3364 119.816C147.128 95.3877 211.54 105.003 274.05 114.099C283.291 115.398 292.803 116.957 302.315 118.257C340.365 123.194 380.588 130.211 416.463 145.284C425.16 148.922 433.586 152.82 441.739 156.718C461.851 166.074 481.147 174.91 501.531 179.587C525.448 185.305 550.723 187.124 575.184 188.683C585.783 189.463 596.926 190.242 607.797 191.282C640.139 194.4 673.84 191.282 708.084 181.666C719.499 178.548 730.914 174.65 742.873 170.752C766.517 162.955 790.978 154.899 815.71 151.001C847.236 146.323 879.035 147.883 908.115 156.199C949.154 167.373 980.953 188.423 996.988 215.45C1005.96 230.003 1014.38 246.635 1022.54 262.748C1030.42 278.08 1038.3 293.933 1047 307.966L1048.35 310.305C1069.01 346.168 1088.58 380.212 1125 410.877L1124.18 411.917C1087.49 381.251 1067.92 347.207 1047.27 311.085L1045.91 308.746C1037.48 294.453 1029.33 278.6 1021.45 263.268C1013.29 247.155 1004.6 230.523 995.901 215.97C979.866 189.203 948.611 168.413 907.844 157.498C879.035 149.442 847.236 147.623 816.253 152.301C791.521 156.199 767.333 164.255 743.688 172.051C731.458 175.949 720.315 179.847 708.9 182.966C674.655 192.581 640.683 195.96 608.069 192.581C597.47 191.542 586.327 190.762 575.727 189.983C551.267 188.163 525.719 186.604 501.803 180.887C481.147 175.949 461.851 167.113 441.739 157.758C433.586 154.12 425.16 150.221 416.463 146.323C380.588 131.251 340.636 124.494 302.587 119.296C293.347 117.997 283.562 116.698 274.322 115.138C212.084 106.043 147.672 96.4272 88.1517 120.596C42.2207 139.567 12.3248 159.317 -8.87411 184.525C-13.7662 190.242 -18.93 196.22 -24.0938 201.677C-38.4982 217.789 -53.1744 234.161 -65.1328 253.652L-65.9482 255.211C-102.91 316.282 -141.232 379.432 -202.654 432.707C-246.683 471.948 -321.694 507.551 -382.301 534.318L-382.845 534.578Z" fill="#A8FA79"/>
</g>
<g style="mix-blend-mode:soft-light">
<path d="M-369.256 534.578L-369.799 533.538C-301.582 502.093 -226.027 464.151 -183.086 421.272C-122.207 362.8 -89.5931 293.153 -58.3383 225.585C-46.6517 201.677 -30.073 181.147 -6.42808 161.396C25.3703 134.629 62.3325 114.619 102.828 101.885C175.937 79.2754 252.308 99.0259 319.709 116.697C324.33 117.997 328.95 119.036 333.298 120.336C374.881 130.991 408.582 143.205 436.303 157.498H437.119C462.123 170.752 483.593 181.926 509.141 185.824C531.155 189.203 554.8 189.723 577.358 190.242C588.773 190.242 600.187 190.762 611.602 191.282C646.118 193.101 675.199 190.242 702.649 182.706C714.335 179.587 725.75 175.689 737.98 171.531C759.179 164.515 780.922 157.238 803.208 153.6C834.734 148.142 866.533 148.922 895.342 155.679C938.555 165.294 971.984 185.824 989.106 213.371C998.619 228.444 1007.86 245.856 1016.56 262.748C1024.44 278.08 1032.86 293.673 1041.56 307.966L1044.01 312.384C1064.66 347.727 1084.23 380.991 1121.19 410.877L1120.38 411.916C1083.41 381.771 1063.85 348.507 1042.92 313.164L1040.47 308.746C1031.78 294.453 1023.62 278.86 1015.47 263.527C1006.5 246.635 997.531 229.224 988.019 214.151C971.169 186.864 938.011 166.594 895.07 157.238C866.533 150.481 835.006 149.702 803.48 155.159C781.465 159.057 759.723 166.074 738.524 173.091C726.294 177.249 714.607 180.887 702.921 184.265C675.199 191.802 646.118 194.66 611.602 192.841C600.187 192.321 588.773 192.061 577.358 191.802C554.8 191.282 531.155 190.762 508.869 187.384C483.05 183.486 461.579 172.311 436.575 159.317H436.032C408.31 144.504 374.609 132.55 333.298 121.895C328.678 120.856 324.33 119.556 319.709 118.257C252.579 100.845 176.481 80.8346 103.643 103.444C63.1478 116.178 26.4574 136.188 -5.34099 162.696C-28.9859 182.446 -45.2928 202.716 -56.9794 226.365C-88.506 293.933 -121.12 363.839 -181.999 422.312C-225.212 465.191 -300.767 503.393 -368.984 534.838L-369.256 534.578Z" fill="#A8FA79"/>
</g>
<g style="mix-blend-mode:soft-light">
<path d="M-355.939 534.838L-356.482 533.798C-280.927 497.416 -205.372 457.135 -162.702 410.357C-102.639 346.428 -76.5476 270.544 -51.2719 196.999C-42.8467 173.87 -28.1705 156.458 -2.07956 138.527C35.1544 112.28 76.4652 94.0883 120.766 83.9531C206.648 64.9822 288.454 93.0488 364.825 123.454C395.808 135.668 425.976 150.741 456.415 169.972C478.973 184.265 496.367 190.502 517.022 191.542C537.678 192.841 559.148 192.061 580.076 191.542C591.762 191.282 603.992 190.762 615.951 190.762H619.756C644.759 190.762 670.85 190.762 697.485 183.486C709.443 180.367 721.13 176.469 733.632 172.311C752.113 166.074 771.409 159.837 790.978 155.939C823.048 149.702 854.574 149.442 882.568 154.899C927.955 162.955 962.743 182.966 980.953 211.032C991.552 227.145 1001.61 245.596 1011.39 263.527C1019.55 278.34 1027.7 293.673 1036.4 307.446L1039.93 313.423C1060.58 348.247 1080.15 380.991 1117.66 410.097L1116.84 411.137C1079.34 381.771 1059.5 348.767 1038.84 313.943L1035.31 307.966C1026.61 293.933 1018.46 278.86 1010.31 264.047C1000.52 246.116 990.465 227.664 980.137 211.552C962.2 183.745 927.684 164.255 882.84 156.199C854.846 150.741 823.32 151.261 791.793 157.238C772.225 160.876 753.2 167.373 734.447 173.35C721.945 177.508 709.987 181.407 698.029 184.525C671.122 191.802 645.031 191.802 619.756 191.802H615.951C603.992 191.802 592.034 192.321 580.076 192.581C559.148 193.361 537.406 193.881 516.75 192.581C495.823 191.542 478.158 185.045 455.328 170.752C424.889 151.521 394.993 136.448 364.01 124.234C287.639 93.8284 206.105 66.0217 120.766 84.7328C76.737 94.6081 35.4262 113.059 -1.53599 139.047C-27.0834 156.718 -41.7596 174.13 -50.1848 196.999C-75.4605 270.544 -101.823 346.428 -161.887 410.617C-204.556 457.655 -280.383 497.935 -355.939 534.318V534.838Z" fill="#A8FA79"/>
</g>
</svg>
