<svg width="24" height="24" viewBox="0 0 24 24" fill="none" xmlns="http://www.w3.org/2000/svg">
<g clip-path="url(#clip0_58_11966)">
<g clip-path="url(#clip1_58_11966)">
<path d="M14.5 7H9.5C8.12512 7 7 8.12463 7 9.5V14.5C7 15.8749 8.12512 17 9.5 17H14.5C15.8749 17 17 15.8749 17 14.5V9.5C17 8.12463 15.8749 7 14.5 7ZM12 14.0833C10.8492 14.0833 9.91663 13.1502 9.91663 12C9.91663 10.8492 10.8492 9.91663 12 9.91663C13.1502 9.91663 14.0834 10.8492 14.0834 12C14.0834 13.1502 13.1502 14.0833 12 14.0833ZM14.7084 9.91663C14.3629 9.91663 14.0834 9.63674 14.0834 9.29163C14.0834 8.94651 14.3629 8.66663 14.7084 8.66663C15.0539 8.66663 15.3334 8.94651 15.3334 9.29163C15.3334 9.63674 15.0539 9.91663 14.7084 9.91663Z" fill="white"/>
</g>
<path d="M12 0C5.37258 0 0 5.37258 0 12C0 18.6274 5.37258 24 12 24C18.6274 24 24 18.6274 24 12C24 5.37258 18.6274 0 12 0ZM12 22.9091C5.97506 22.9091 1.09092 18.0249 1.09092 12C1.09092 5.97506 5.97506 1.09092 12 1.09092C18.0249 1.09092 22.9091 5.97506 22.9091 12C22.9091 18.0249 18.0249 22.9091 12 22.9091Z" fill="white"/>
</g>
<defs>
<clipPath id="clip0_58_11966">
<rect width="24" height="24" fill="white"/>
</clipPath>
<clipPath id="clip1_58_11966">
<rect width="10" height="10" fill="white" transform="translate(7 7)"/>
</clipPath>
</defs>
</svg>
