<svg width="24" height="24" viewBox="0 0 24 24" fill="none" xmlns="http://www.w3.org/2000/svg">
<g clip-path="url(#clip0_58_11952)">
<path d="M8.72727 9.8182C9.32977 9.8182 9.8182 9.32977 9.8182 8.72727C9.8182 8.12478 9.32977 7.63635 8.72727 7.63635C8.12478 7.63635 7.63635 8.12478 7.63635 8.72727C7.63635 9.32977 8.12478 9.8182 8.72727 9.8182Z" fill="white"/>
<path d="M9.81815 10.3636H7.63635V16.3636H9.81815V10.3636Z" fill="white"/>
<path d="M12 0C5.37258 0 0 5.37258 0 12C0 18.6274 5.37258 24 12 24C18.6274 24 24 18.6274 24 12C24 5.37258 18.6274 0 12 0ZM12 22.9091C5.97506 22.9091 1.09092 18.0249 1.09092 12C1.09092 5.97506 5.97506 1.09092 12 1.09092C18.0249 1.09092 22.9091 5.97506 22.9091 12C22.9091 18.0249 18.0249 22.9091 12 22.9091Z" fill="white"/>
<path d="M14.9236 10.3636C13.2873 10.3636 13.0909 11.3346 13.0909 11.3346V10.3636H10.9091V16.3636H13.0909V13.0909C13.0909 13.0909 13.0909 12 14.0182 12C14.5636 12 14.7273 12.4854 14.7273 13.0909V16.3636H16.9091V13.0909C16.9091 11.3836 16.1673 10.3636 14.9236 10.3636Z" fill="white"/>
</g>
<defs>
<clipPath id="clip0_58_11952">
<rect width="24" height="24" fill="white"/>
</clipPath>
</defs>
</svg>
