<svg width="65" height="64" viewBox="0 0 65 64" fill="none" xmlns="http://www.w3.org/2000/svg">
<path d="M32.5001 62.2223C49.1913 62.2223 62.7223 48.6913 62.7223 32.0001C62.7223 15.3088 49.1913 1.77783 32.5001 1.77783C15.8088 1.77783 2.27783 15.3088 2.27783 32.0001C2.27783 48.6913 15.8088 62.2223 32.5001 62.2223Z" fill="#BAF689"/>
<path d="M32.5002 58.1038C46.9169 58.1038 58.6039 46.4168 58.6039 32.0001C58.6039 17.5834 46.9169 5.89636 32.5002 5.89636C18.0835 5.89636 6.39648 17.5834 6.39648 32.0001C6.39648 46.4168 18.0835 58.1038 32.5002 58.1038Z" fill="#191C21"/>
<path d="M29.1822 41.5552L21.0845 33.4575L23.9993 30.5427L29.1822 35.7256L41.0055 23.9023L43.9203 26.8171L29.1822 41.5552Z" fill="white"/>
</svg>
