<svg width="24" height="24" viewBox="0 0 24 24" fill="none" xmlns="http://www.w3.org/2000/svg">
<g clip-path="url(#clip0_58_11981)">
<path d="M12 0C5.37258 0 0 5.37258 0 12C0 18.6274 5.37258 24 12 24C18.6274 24 24 18.6274 24 12C24 5.37258 18.6274 0 12 0ZM12 22.9091C5.97506 22.9091 1.09092 18.0249 1.09092 12C1.09092 5.97506 5.97506 1.09092 12 1.09092C18.0249 1.09092 22.9091 5.97506 22.9091 12C22.9091 18.0249 18.0249 22.9091 12 22.9091Z" fill="white"/>
<g clip-path="url(#clip1_58_11981)">
<path d="M9.92376 13.3254L9.75835 15.6521C9.99501 15.6521 10.0975 15.5504 10.2204 15.4283L11.33 14.3679L13.6292 16.0517C14.0508 16.2867 14.3479 16.1629 14.4617 15.6637L15.9708 8.59208L15.9713 8.59166C16.105 7.96833 15.7458 7.72458 15.335 7.8775L6.46418 11.2737C5.85876 11.5087 5.86793 11.8462 6.36126 11.9992L8.62918 12.7046L13.8971 9.40833C14.145 9.24416 14.3704 9.335 14.185 9.49916L9.92376 13.3254Z" fill="white"/>
</g>
</g>
<defs>
<clipPath id="clip0_58_11981">
<rect width="24" height="24" fill="white"/>
</clipPath>
<clipPath id="clip1_58_11981">
<rect width="10" height="10" fill="white" transform="translate(6 7)"/>
</clipPath>
</defs>
</svg>
