<svg width="24" height="24" viewBox="0 0 24 24" fill="none" xmlns="http://www.w3.org/2000/svg">
<g clip-path="url(#clip0_58_11960)">
<path d="M12 0C5.37258 0 0 5.37258 0 12C0 18.6274 5.37258 24 12 24C18.6274 24 24 18.6274 24 12C24 5.37258 18.6274 0 12 0ZM12 22.9091C5.97506 22.9091 1.09092 18.0249 1.09092 12C1.09092 5.97506 5.97506 1.09092 12 1.09092C18.0249 1.09092 22.9091 5.97506 22.9091 12C22.9091 18.0249 18.0249 22.9091 12 22.9091Z" fill="white"/>
<path d="M16.0527 13.5461C15.4546 13.5461 14.8948 13.3264 14.3855 12.9687L14.5094 12.4639L14.5149 12.4455C14.6255 11.9081 14.9756 11.0057 16.0527 11.0057C16.8605 11.0057 17.5175 11.5762 17.5175 12.2769C17.5151 12.9755 16.8581 13.5461 16.0527 13.5461ZM16.0527 9.71755C14.6766 9.71755 13.6099 10.4936 13.1765 11.7696C12.514 10.9071 12.0131 9.87191 11.7196 9H10.2389V12.3444C10.2389 13.0034 9.61957 13.5408 8.85979 13.5408C8.10002 13.5408 7.48127 13.0034 7.48127 12.3444V9H6.00002V12.3444C5.99455 13.7141 7.27947 14.8384 8.85736 14.8384C10.4353 14.8384 11.7202 13.7141 11.7202 12.3444V11.7833C12.0083 12.3043 12.3608 12.8301 12.7893 13.2979L11.8819 17H13.3984L14.0554 14.3147C14.6316 14.635 15.2941 14.8358 16.0539 14.8358C17.678 14.8358 19 13.6809 19 12.2716C18.9988 10.865 17.6768 9.71755 16.0527 9.71755Z" fill="white"/>
</g>
<defs>
<clipPath id="clip0_58_11960">
<rect width="24" height="24" fill="white"/>
</clipPath>
</defs>
</svg>
